<svg width="454" height="425" viewBox="0 0 454 425" fill="none" xmlns="http://www.w3.org/2000/svg">
<circle cx="241.671" cy="212.313" r="212.313" fill="#D0CDE1" fill-opacity="0.28"/>
<g clip-path="url(#clip0)">
<path d="M201.847 146.17V200.059H304.715" fill="#F2F2F2"/>
<path d="M319.769 200.476H201.428V93.9514H202.265V199.641H319.769V200.476Z" fill="#3F3D56"/>
<path d="M203.137 200.597L202.389 200.224C207.533 189.942 218.262 182.649 229.723 181.644C231.7 181.47 233.772 181.453 235.775 181.437C241.312 181.391 247.037 181.343 251.211 177.961C254.301 175.458 255.795 171.776 257.376 167.877C258.15 165.844 259.056 163.864 260.088 161.949C262.086 158.537 264.886 155.664 268.247 153.578C271.608 151.491 275.427 150.256 279.374 149.978C279.68 149.96 279.991 149.949 280.307 149.946C280.982 149.045 281.722 148.195 282.522 147.403C286.575 143.399 291.764 140.774 296.782 138.236L297.97 137.635C303.28 134.935 308.78 131.908 312.535 127.218C314.883 124.216 316.449 120.679 317.093 116.923C317.736 113.168 317.438 109.312 316.224 105.7L317.013 105.425C318.272 109.171 318.582 113.17 317.914 117.064C317.247 120.958 315.623 124.626 313.189 127.74C309.329 132.56 303.742 135.639 298.349 138.379L297.16 138.982C292.199 141.491 287.069 144.085 283.11 147.997C282.485 148.616 281.897 149.271 281.351 149.96C286.077 150.146 291.574 151.968 294.664 156.689C295.531 158.068 296.101 159.613 296.338 161.225C296.574 162.837 296.471 164.48 296.036 166.05C295.291 168.79 293.631 170.92 291.362 172.046C288.966 173.236 286.134 173.201 283.388 171.949C281.789 171.224 280.366 170.16 279.22 168.831C278.073 167.502 277.23 165.939 276.749 164.252C275.484 159.369 277.149 154.537 279.698 150.798C279.606 150.802 279.514 150.806 279.422 150.812C275.614 151.08 271.929 152.272 268.687 154.285C265.444 156.298 262.742 159.07 260.815 162.362C259.802 164.245 258.912 166.192 258.152 168.191C256.6 172.016 254.995 175.971 251.738 178.61C247.336 182.176 241.463 182.225 235.782 182.272C233.795 182.289 231.74 182.305 229.796 182.476C218.618 183.456 208.154 190.57 203.137 200.597ZM280.73 150.779C278.107 154.411 276.308 159.213 277.558 164.042C278.007 165.61 278.792 167.061 279.859 168.295C280.926 169.529 282.249 170.517 283.736 171.189C286.248 172.334 288.824 172.373 290.989 171.298C293.042 170.279 294.547 168.338 295.229 165.831C295.625 164.374 295.717 162.851 295.499 161.357C295.281 159.863 294.759 158.43 293.964 157.146C291.412 153.247 286.313 150.825 280.73 150.779Z" fill="#3F3D56"/>
<path d="M259.553 171.234C263.71 171.234 267.08 167.868 267.08 163.715C267.08 159.562 263.71 156.196 259.553 156.196C255.396 156.196 252.026 159.562 252.026 163.715C252.026 167.868 255.396 171.234 259.553 171.234Z" fill="#DFA911"/>
<path d="M413.019 365.068H134.94V365.904H413.019V365.068Z" fill="#3F3D56"/>
<path d="M348.058 180.144L344.619 197.321C344.619 197.321 340.197 207.137 342.162 214.008L343.636 216.952L352.97 208.609L356.409 185.543L348.058 180.144Z" fill="#A0616A"/>
<path d="M328.898 339.155L323.494 359.768L329.881 362.712L335.776 357.805L339.215 342.1L328.898 339.155Z" fill="#A0616A"/>
<path d="M401.36 331.057L404.062 360.749H417.818L411.186 328.113L401.36 331.057Z" fill="#A0616A"/>
<path d="M379.99 221.86L382.773 208.266L350.514 200.757L343.636 211.554C343.636 211.554 331.846 230.203 328.898 287.133C325.951 344.063 324.968 343.572 324.968 343.572L349.04 346.026L361.322 266.521L391.781 339.155L414.87 332.775L385.885 245.417C385.885 245.417 387.85 232.657 379.99 221.86Z" fill="#2F2E41"/>
<path d="M330.372 355.351L326.933 358.786L324.968 356.823L326.041 349.612L320.547 352.897C320.547 352.897 310.721 351.425 311.704 361.731C311.704 361.731 310.23 365.166 318.582 369.093C326.933 373.019 331.355 375.473 331.355 375.473C331.355 375.473 339.215 374.982 339.215 372.528C339.215 370.074 336.738 353.412 336.738 353.412L330.372 355.351Z" fill="#2F2E41"/>
<path d="M410.449 355.351L407.01 358.786L405.045 356.823L402.983 349.612L400.623 352.897C400.623 352.897 390.798 351.425 391.78 361.731C391.78 361.731 390.307 365.166 398.658 369.093C407.01 373.019 411.431 375.473 411.431 375.473C411.431 375.473 419.291 374.982 419.291 372.528C419.291 370.074 416.814 353.412 416.814 353.412L410.449 355.351Z" fill="#2F2E41"/>
<path d="M371.639 151.679C379.507 151.679 385.885 145.307 385.885 137.447C385.885 129.586 379.507 123.214 371.639 123.214C363.77 123.214 357.392 129.586 357.392 137.447C357.392 145.307 363.77 151.679 371.639 151.679Z" fill="#A0616A"/>
<path d="M367.217 148.244L368.199 164.93H386.868L381.464 142.354L367.217 148.244Z" fill="#A0616A"/>
<path d="M356.409 158.059L371.638 157.078L387.85 158.059C387.85 158.059 401.606 165.421 394.237 185.543C386.868 205.664 381.464 212.044 381.464 212.044L365.743 205.174H360.831C360.831 205.174 359.357 203.701 358.865 203.701C358.374 203.701 349.04 205.174 349.04 205.174C349.04 205.174 346.584 194.867 350.023 193.886C353.462 192.904 355.427 187.506 355.427 187.506L356.409 158.059Z" fill="#D0CDE1"/>
<path d="M359.357 159.532L356.409 158.059L346.093 182.107L357.392 189.469L359.357 159.532Z" fill="#D0CDE1"/>
<path d="M351.251 136.22C351.251 136.22 344.373 118.552 357.97 116.861C357.97 116.861 375.113 106.341 386.131 123.95L394.826 145.392L391.921 144.815L391.552 147.704L387.846 149.976L385.058 147.098L385.519 151.504L353.581 165.054C353.581 165.054 365.622 151.733 360.977 136.028L359.092 139.873L351.251 136.22Z" fill="#2F2E41"/>
<path d="M152.629 354.796C150.843 361.393 144.725 365.478 144.725 365.478C144.725 365.478 141.503 358.868 143.289 352.272C145.075 345.676 151.193 341.59 151.193 341.59C151.193 341.59 154.416 348.2 152.629 354.796Z" fill="#DFA911"/>
<path d="M136.38 354.796C138.166 361.393 144.284 365.478 144.284 365.478C144.284 365.478 147.506 358.868 145.72 352.272C143.934 345.676 137.816 341.59 137.816 341.59C137.816 341.59 134.593 348.2 136.38 354.796Z" fill="#DFA911"/>
<path d="M139.004 353.379C143.906 358.145 144.505 365.473 144.505 365.473C144.505 365.473 137.156 365.072 132.255 360.305C127.353 355.539 126.755 348.211 126.755 348.211C126.755 348.211 134.103 348.612 139.004 353.379Z" fill="#3F3D56"/>
<path d="M150.005 353.379C145.103 358.145 144.505 365.473 144.505 365.473C144.505 365.473 151.853 365.072 156.754 360.305C161.656 355.539 162.254 348.211 162.254 348.211C162.254 348.211 154.906 348.612 150.005 353.379Z" fill="#3F3D56"/>
<path d="M78.1236 118.464C79.9415 112.515 83.2957 107.15 87.8488 102.907C92.4018 98.6648 97.9931 95.6951 104.06 94.2972C99.8134 89.7468 94.4425 86.3936 88.4872 84.5745C82.532 82.7554 76.2023 82.5346 70.1346 83.9343C64.0668 85.334 58.4749 88.3049 53.9209 92.5482C49.367 96.7916 46.0115 102.158 44.1919 108.107C42.3722 114.057 42.1526 120.381 43.5549 126.442C44.9573 132.503 47.9323 138.089 52.1809 142.638C56.4294 147.186 61.8018 150.537 67.7578 152.354C73.7138 154.17 80.0435 154.388 86.1107 152.986C81.8619 148.439 78.8867 142.855 77.4846 136.795C76.0825 130.735 76.3029 124.412 78.1236 118.464Z" fill="#DFA911"/>
<path d="M127.689 96.5399C121.734 94.7153 115.403 94.4972 109.337 95.9078C113.584 100.455 116.559 106.04 117.961 112.099C119.363 118.159 119.143 124.481 117.324 130.429C115.505 136.378 112.15 141.743 107.597 145.985C103.045 150.227 97.4539 153.197 91.3877 154.597C95.0987 158.571 99.6753 161.64 104.763 163.565C109.851 165.491 115.315 166.22 120.73 165.699C126.146 165.177 131.369 163.418 135.995 160.557C140.621 157.696 144.527 153.811 147.409 149.201C150.292 144.591 152.074 139.38 152.618 133.972C153.162 128.564 152.454 123.103 150.547 118.012C148.641 112.922 145.588 108.337 141.624 104.614C137.66 100.89 132.892 98.1279 127.689 96.5399Z" fill="#3F3D56"/>
<path d="M114.309 129.509C119.265 113.303 115.689 97.8467 106.322 94.9874C96.9538 92.1282 85.3417 102.948 80.3852 119.155C75.4286 135.361 79.0045 150.817 88.3722 153.676C97.7399 156.536 109.352 145.715 114.309 129.509Z" fill="#D0CDE1"/>
<path d="M317.678 115.257C321.835 115.257 325.205 111.89 325.205 107.737C325.205 103.584 321.835 100.218 317.678 100.218C313.521 100.218 310.151 103.584 310.151 107.737C310.151 111.89 313.521 115.257 317.678 115.257Z" fill="#DFA911"/>
<path d="M297.188 146.17C301.345 146.17 304.715 142.803 304.715 138.65C304.715 134.497 301.345 131.131 297.188 131.131C293.031 131.131 289.661 134.497 289.661 138.65C289.661 142.803 293.031 146.17 297.188 146.17Z" fill="#DFA911"/>
</g>
<defs>
<clipPath id="clip0">
<rect width="419.291" height="292.454" fill="white" transform="translate(0 83.019)"/>
</clipPath>
</defs>
</svg>
