<svg width="230" height="345" viewBox="0 0 230 345" fill="none" xmlns="http://www.w3.org/2000/svg">
<path d="M284.075 232.046C316.791 170.291 293.251 93.7072 231.496 60.9913C169.741 28.2754 93.1574 51.816 60.4415 113.571C27.7256 175.326 51.2662 251.909 113.021 284.625C174.776 317.341 251.359 293.8 284.075 232.046Z" stroke="white" stroke-width="1.655" stroke-miterlimit="10"/>
<path d="M261.336 219.999C287.398 170.803 268.645 109.793 219.449 83.7308C170.253 57.6681 109.244 76.4215 83.1809 125.618C57.1182 174.814 75.8715 235.823 125.068 261.886C174.264 287.948 235.273 269.195 261.336 219.999Z" stroke="white" stroke-width="1.655" stroke-miterlimit="10"/>
<path d="M238.596 207.952C258.006 171.315 244.04 125.88 207.402 106.47C170.765 87.0609 125.33 101.027 105.921 137.664C86.5111 174.302 100.477 219.737 137.114 239.146C173.752 258.555 219.187 244.589 238.596 207.952Z" stroke="white" stroke-width="1.655" stroke-miterlimit="10"/>
<path d="M215.857 195.905C228.613 171.827 219.434 141.966 195.356 129.21C171.277 116.454 141.416 125.632 128.66 149.711C115.904 173.79 125.083 203.65 149.161 216.407C173.24 229.163 203.101 219.984 215.857 195.905Z" stroke="white" stroke-width="1.655" stroke-miterlimit="10"/>
<path d="M193.117 183.859C199.22 172.339 194.829 158.052 183.309 151.949C171.789 145.846 157.502 150.238 151.4 161.758C145.297 173.278 149.688 187.564 161.208 193.667C172.728 199.77 187.014 195.379 193.117 183.859Z" stroke="white" stroke-width="1.655" stroke-miterlimit="10"/>
</svg>
