<svg width="239" height="226" viewBox="0 0 239 226" fill="none" xmlns="http://www.w3.org/2000/svg">
<path d="M86.0308 215.763C87.0312 213.875 86.3113 211.533 84.4228 210.532C82.5343 209.532 80.1923 210.252 79.1918 212.14C78.1913 214.029 78.9112 216.371 80.7997 217.371C82.6883 218.372 85.0303 217.652 86.0308 215.763Z" fill="white"/>
<path d="M97.7152 193.708C98.7156 191.819 97.9957 189.477 96.1072 188.477C94.2187 187.476 91.8767 188.196 90.8762 190.085C89.8757 191.973 90.5956 194.315 92.4841 195.316C94.3727 196.316 96.7147 195.596 97.7152 193.708Z" fill="white"/>
<path d="M109.309 171.823C110.309 169.935 109.59 167.593 107.701 166.592C105.813 165.592 103.471 166.311 102.47 168.2C101.47 170.088 102.189 172.431 104.078 173.431C105.967 174.431 108.309 173.712 109.309 171.823Z" fill="white"/>
<path d="M120.993 149.767C121.994 147.879 121.274 145.537 119.386 144.536C117.497 143.536 115.155 144.256 114.155 146.144C113.154 148.033 113.874 150.375 115.762 151.375C117.651 152.376 119.993 151.656 120.993 149.767Z" fill="white"/>
<path d="M132.587 127.883C133.588 125.994 132.868 123.652 130.979 122.652C129.091 121.651 126.749 122.371 125.748 124.26C124.748 126.148 125.468 128.49 127.356 129.491C129.245 130.491 131.587 129.771 132.587 127.883Z" fill="white"/>
<path d="M144.272 105.827C145.272 103.939 144.552 101.597 142.664 100.596C140.775 99.5956 138.433 100.315 137.433 102.204C136.432 104.093 137.152 106.435 139.041 107.435C140.929 108.436 143.271 107.716 144.272 105.827Z" fill="white"/>
<path d="M155.866 83.9424C156.866 82.0539 156.146 79.7119 154.258 78.7114C152.369 77.7109 150.027 78.4308 149.027 80.3194C148.026 82.2079 148.746 84.5499 150.635 85.5504C152.523 86.5509 154.865 85.831 155.866 83.9424Z" fill="white"/>
<path d="M53.7491 226.688C54.7496 224.8 54.0297 222.458 52.1411 221.457C50.2526 220.457 47.9106 221.177 46.9101 223.065C45.9096 224.954 46.6295 227.296 48.518 228.296C50.4066 229.297 52.7486 228.577 53.7491 226.688Z" fill="white"/>
<path d="M65.3429 204.803C66.3434 202.915 65.6235 200.573 63.735 199.572C61.8465 198.572 59.5045 199.292 58.504 201.18C57.5035 203.069 58.2234 205.411 60.1119 206.411C62.0004 207.412 64.3425 206.692 65.3429 204.803Z" fill="white"/>
<path d="M77.0274 182.748C78.0279 180.859 77.308 178.517 75.4195 177.517C73.5309 176.516 71.1889 177.236 70.1884 179.125C69.1879 181.013 69.9078 183.355 71.7964 184.356C73.6849 185.356 76.0269 184.636 77.0274 182.748Z" fill="white"/>
<path d="M88.6212 160.863C89.6217 158.975 88.9018 156.633 87.0133 155.632C85.1247 154.632 82.7827 155.352 81.7822 157.24C80.7818 159.129 81.5017 161.471 83.3902 162.471C85.2787 163.472 87.6207 162.752 88.6212 160.863Z" fill="white"/>
<path d="M100.306 138.808C101.306 136.919 100.586 134.577 98.6977 133.577C96.8092 132.576 94.4672 133.296 93.4667 135.185C92.4662 137.073 93.1861 139.415 95.0746 140.416C96.9632 141.416 99.3052 140.696 100.306 138.808Z" fill="white"/>
<path d="M111.9 116.923C112.9 115.034 112.18 112.692 110.292 111.692C108.403 110.691 106.061 111.411 105.061 113.3C104.06 115.188 104.78 117.53 106.668 118.531C108.557 119.531 110.899 118.811 111.9 116.923Z" fill="white"/>
<path d="M123.584 94.8673C124.584 92.9788 123.865 90.6368 121.976 89.6363C120.088 88.6358 117.745 89.3557 116.745 91.2442C115.745 93.1327 116.464 95.4748 118.353 96.4752C120.241 97.4757 122.583 96.7558 123.584 94.8673Z" fill="white"/>
<path d="M135.178 72.9827C136.178 71.0941 135.458 68.7521 133.57 67.7516C131.681 66.7512 129.339 67.4711 128.339 69.3596C127.338 71.2481 128.058 73.5901 129.947 74.5906C131.835 75.5911 134.177 74.8712 135.178 72.9827Z" fill="white"/>
<path d="M32.8902 215.638C33.8907 213.749 33.1708 211.407 31.2823 210.407C29.3938 209.406 27.0518 210.126 26.0513 212.015C25.0508 213.903 25.7707 216.245 27.6592 217.246C29.5477 218.246 31.8898 217.526 32.8902 215.638Z" fill="white"/>
<path d="M44.4841 193.753C45.4846 191.865 44.7647 189.523 42.8762 188.522C40.9877 187.522 38.6456 188.241 37.6452 190.13C36.6447 192.018 37.3646 194.36 39.2531 195.361C41.1416 196.361 43.4836 195.642 44.4841 193.753Z" fill="white"/>
<path d="M56.1686 171.698C57.169 169.809 56.4491 167.467 54.5606 166.466C52.6721 165.466 50.3301 166.186 49.3296 168.074C48.3291 169.963 49.049 172.305 50.9375 173.305C52.8261 174.306 55.1681 173.586 56.1686 171.698Z" fill="white"/>
<path d="M67.7624 149.813C68.7629 147.924 68.043 145.582 66.1544 144.582C64.2659 143.581 61.9239 144.301 60.9234 146.19C59.9229 148.078 60.6428 150.42 62.5314 151.421C64.4199 152.421 66.7619 151.701 67.7624 149.813Z" fill="white"/>
<path d="M79.4469 127.757C80.4474 125.869 79.7275 123.527 77.8389 122.526C75.9504 121.526 73.6084 122.246 72.6079 124.134C71.6074 126.023 72.3273 128.365 74.2159 129.365C76.1044 130.366 78.4464 129.646 79.4469 127.757Z" fill="white"/>
<path d="M91.0407 105.873C92.0412 103.984 91.3213 101.642 89.4327 100.642C87.5442 99.641 85.2022 100.361 84.2017 102.249C83.2013 104.138 83.9211 106.48 85.8097 107.48C87.6982 108.481 90.0402 107.761 91.0407 105.873Z" fill="white"/>
<path d="M102.725 83.8169C103.726 81.9284 103.006 79.5864 101.117 78.5859C99.2287 77.5854 96.8867 78.3053 95.8862 80.1938C94.8857 82.0823 95.6056 84.4243 97.4941 85.4248C99.3826 86.4253 101.725 85.7054 102.725 83.8169Z" fill="white"/>
<path d="M114.319 61.9322C115.319 60.0437 114.6 57.7017 112.711 56.7012C110.823 55.7007 108.481 56.4206 107.48 58.3092C106.48 60.1977 107.199 62.5397 109.088 63.5402C110.977 64.5407 113.319 63.8208 114.319 61.9322Z" fill="white"/>
<path d="M12.2024 204.678C13.2028 202.789 12.483 200.447 10.5944 199.447C8.70591 198.446 6.36391 199.166 5.36342 201.055C4.36293 202.943 5.08283 205.285 6.97135 206.286C8.85987 207.286 11.2019 206.566 12.2024 204.678Z" fill="white"/>
<path d="M23.7962 182.793C24.7967 180.905 24.0768 178.563 22.1883 177.562C20.2998 176.562 17.9578 177.282 16.9573 179.17C15.9568 181.059 16.6767 183.401 18.5652 184.401C20.4538 185.402 22.7958 184.682 23.7962 182.793Z" fill="white"/>
<path d="M35.4806 160.738C36.4811 158.849 35.7612 156.507 33.8727 155.507C31.9842 154.506 29.6422 155.226 28.6417 157.115C27.6412 159.003 28.3611 161.345 30.2496 162.346C32.1381 163.346 34.4801 162.626 35.4806 160.738Z" fill="white"/>
<path d="M47.0745 138.853C48.075 136.964 47.3551 134.622 45.4666 133.622C43.578 132.621 41.236 133.341 40.2356 135.23C39.2351 137.118 39.955 139.46 41.8435 140.461C43.732 141.461 46.074 140.741 47.0745 138.853Z" fill="white"/>
<path d="M58.7589 116.797C59.7594 114.909 59.0395 112.567 57.151 111.566C55.2625 110.566 52.9205 111.286 51.92 113.174C50.9195 115.063 51.6394 117.405 53.5279 118.405C55.4165 119.406 57.7585 118.686 58.7589 116.797Z" fill="white"/>
<path d="M70.3528 94.9127C71.3533 93.0242 70.6334 90.6822 68.7449 89.6817C66.8564 88.6812 64.5144 89.4011 63.5139 91.2896C62.5134 93.1782 63.2333 95.5202 65.1218 96.5206C67.0103 97.5211 69.3523 96.8012 70.3528 94.9127Z" fill="white"/>
<path d="M82.0373 72.8571C83.0377 70.9685 82.3178 68.6265 80.4293 67.6261C78.5408 66.6256 76.1988 67.3455 75.1983 69.234C74.1978 71.1225 74.9177 73.4645 76.8062 74.465C78.6948 75.4655 81.0368 74.7456 82.0373 72.8571Z" fill="white"/>
<path d="M93.6311 50.9724C94.6316 49.0839 93.9117 46.7419 92.0232 45.7414C90.1347 44.7409 87.7927 45.4608 86.7922 47.3493C85.7917 49.2379 86.5116 51.5799 88.4001 52.5803C90.2887 53.5808 92.6307 52.8609 93.6311 50.9724Z" fill="white"/>
<path d="M3.10838 171.833C4.10887 169.945 3.38897 167.603 1.50045 166.602C-0.388077 165.602 -2.73008 166.322 -3.73057 168.21C-4.73106 170.099 -4.01116 172.441 -2.12264 173.441C-0.234113 174.442 2.10789 173.722 3.10838 171.833Z" fill="white"/>
<path d="M14.7928 149.778C15.7933 147.889 15.0734 145.547 13.1849 144.547C11.2964 143.546 8.95436 144.266 7.95387 146.155C6.95339 148.043 7.67329 150.385 9.56181 151.386C11.4503 152.386 13.7923 151.666 14.7928 149.778Z" fill="white"/>
<path d="M26.3866 127.893C27.3871 126.005 26.6672 123.663 24.7787 122.662C22.8902 121.662 20.5482 122.382 19.5477 124.27C18.5472 126.159 19.2671 128.501 21.1556 129.501C23.0441 130.502 25.3862 129.782 26.3866 127.893Z" fill="white"/>
<path d="M38.0711 105.838C39.0716 103.949 38.3517 101.607 36.4632 100.606C34.5746 99.606 32.2326 100.326 31.2321 102.214C30.2316 104.103 30.9515 106.445 32.8401 107.445C34.7286 108.446 37.0706 107.726 38.0711 105.838Z" fill="white"/>
<path d="M49.665 83.9529C50.6654 82.0643 49.9455 79.7223 48.057 78.7219C46.1685 77.7214 43.8265 78.4413 42.826 80.3298C41.8255 82.2183 42.5454 84.5603 44.4339 85.5608C46.3225 86.5613 48.6645 85.8414 49.665 83.9529Z" fill="white"/>
<path d="M61.3494 61.8972C62.3499 60.0087 61.63 57.6667 59.7415 56.6662C57.8529 55.6657 55.5109 56.3856 54.5105 58.2741C53.51 60.1627 54.2299 62.5047 56.1184 63.5051C58.0069 64.5056 60.3489 63.7857 61.3494 61.8972Z" fill="white"/>
<path d="M72.9433 40.0126C73.9438 38.1241 73.2239 35.782 71.3353 34.7815C69.4468 33.7811 67.1048 34.501 66.1043 36.3895C65.1038 38.278 65.8237 40.62 67.7123 41.6205C69.6008 42.621 71.9428 41.9011 72.9433 40.0126Z" fill="white"/>
<path d="M5.69883 116.933C6.69931 115.045 5.97941 112.703 4.09089 111.702C2.20237 110.702 -0.139633 111.422 -1.14012 113.31C-2.14061 115.199 -1.42071 117.541 0.46781 118.541C2.35633 119.542 4.69834 118.822 5.69883 116.933Z" fill="white"/>
<path d="M17.3833 94.8777C18.3838 92.9891 17.6639 90.6471 15.7754 89.6466C13.8868 88.6462 11.5448 89.3661 10.5443 91.2546C9.54384 93.1431 10.2637 95.4851 12.1523 96.4856C14.0408 97.4861 16.3828 96.7662 17.3833 94.8777Z" fill="white"/>
<path d="M28.9772 72.993C29.9776 71.1045 29.2577 68.7625 27.3692 67.762C25.4807 66.7615 23.1387 67.4814 22.1382 69.37C21.1377 71.2585 21.8576 73.6005 23.7461 74.601C25.6347 75.6015 27.9767 74.8816 28.9772 72.993Z" fill="white"/>
<path d="M40.6616 50.9374C41.6621 49.0489 40.9422 46.7069 39.0537 45.7064C37.1651 44.7059 34.8231 45.4258 33.8226 47.3143C32.8222 49.2028 33.5421 51.5448 35.4306 52.5453C37.3191 53.5458 39.6611 52.8259 40.6616 50.9374Z" fill="white"/>
<path d="M52.2555 29.0527C53.2559 27.1642 52.5361 24.8222 50.6475 23.8217C48.759 22.8212 46.417 23.5411 45.4165 25.4297C44.416 27.3182 45.1359 29.6602 47.0245 30.6607C48.913 31.6611 51.255 30.9413 52.2555 29.0527Z" fill="white"/>
<path d="M8.1184 61.9427C9.11888 60.0542 8.39898 57.7122 6.51046 56.7117C4.62193 55.7112 2.27992 56.4311 1.27944 58.3196C0.27895 60.2081 0.998849 62.5501 2.88738 63.5506C4.7759 64.5511 7.11791 63.8312 8.1184 61.9427Z" fill="white"/>
<path d="M19.8028 39.887C20.8033 37.9985 20.0834 35.6565 18.1949 34.656C16.3064 33.6555 13.9644 34.3754 12.9639 36.2639C11.9634 38.1525 12.6833 40.4945 14.5718 41.495C16.4603 42.4954 18.8023 41.7755 19.8028 39.887Z" fill="white"/>
<path d="M31.3967 18.0024C32.3972 16.1139 31.6773 13.7718 29.7888 12.7714C27.9002 11.7709 25.5582 12.4908 24.5578 14.3793C23.5573 16.2678 24.2772 18.6098 26.1657 19.6103C28.0542 20.6108 30.3962 19.8909 31.3967 18.0024Z" fill="white"/>
<path d="M-0.885029 28.9272C0.115458 27.0387 -0.60444 24.6966 -2.49296 23.6962C-4.38149 22.6957 -6.7235 23.4156 -7.72398 25.3041C-8.72447 27.1926 -8.00457 29.5346 -6.11605 30.5351C-4.22752 31.5356 -1.88552 30.8157 -0.885029 28.9272Z" fill="white"/>
<path d="M10.7088 7.04254C11.7093 5.15402 10.9894 2.812 9.10091 1.81152C7.21238 0.81103 4.87037 1.53094 3.86989 3.41946C2.8694 5.30798 3.5893 7.64998 5.47783 8.65047C7.36635 9.65096 9.70836 8.93106 10.7088 7.04254Z" fill="white"/>
<path d="M38.6733 39.04L-55.7623 217.297L121.842 311.387L216.278 133.13L38.6733 39.04Z" fill="#DFA911"/>
<path d="M178.353 235.175C211.069 173.421 187.529 96.837 125.774 64.1211C64.019 31.4051 -12.5646 54.9458 -45.2805 116.701C-77.9964 178.455 -54.4558 255.039 7.29901 287.755C69.0538 320.471 145.637 296.93 178.353 235.175Z" stroke="white" stroke-width="1.655" stroke-miterlimit="10"/>
<path d="M155.614 223.129C181.676 173.933 162.923 112.923 113.727 86.8606C64.531 60.7979 3.5217 79.5512 -22.541 128.747C-48.6037 177.943 -29.8503 238.953 19.3457 265.015C68.5418 291.078 129.551 272.325 155.614 223.129Z" stroke="white" stroke-width="1.655" stroke-miterlimit="10"/>
<path d="M132.874 211.082C152.284 174.444 138.318 129.01 101.68 109.6C65.0429 90.1907 19.608 104.157 0.198585 140.794C-19.2109 177.431 -5.24484 222.866 31.3925 242.276C68.0299 261.685 113.465 247.719 132.874 211.082Z" stroke="white" stroke-width="1.655" stroke-miterlimit="10"/>
<path d="M110.135 199.035C122.891 174.956 113.712 145.096 89.6336 132.34C65.5549 119.583 35.6943 128.762 22.9381 152.841C10.1819 176.92 19.3606 206.78 43.4393 219.536C67.518 232.293 97.3786 223.114 110.135 199.035Z" stroke="white" stroke-width="1.655" stroke-miterlimit="10"/>
<path d="M87.3952 186.988C93.4982 175.468 89.1068 161.182 77.5868 155.079C66.0668 148.976 51.7806 153.368 45.6776 164.888C39.5746 176.408 43.966 190.694 55.486 196.797C67.006 202.9 81.2922 198.508 87.3952 186.988Z" stroke="white" stroke-width="1.655" stroke-miterlimit="10"/>
</svg>
