<svg width="253" height="398" viewBox="0 0 253 398" fill="none" xmlns="http://www.w3.org/2000/svg">
<g clip-path="url(#clip0)">
<path d="M2.9533 339.442C5.42433 341.75 9.30199 341.613 11.6143 339.137C13.9266 336.661 13.798 332.783 11.3269 330.476C8.85589 328.168 4.97822 328.305 2.6659 330.781C0.353589 333.257 0.482268 337.135 2.9533 339.442Z" fill="white"/>
<path d="M-0.472701 285.184C1.99833 287.491 5.87601 287.355 8.18833 284.879C10.5007 282.403 10.372 278.525 7.90095 276.217C5.42993 273.91 1.55226 274.046 -0.760063 276.522C-3.07239 278.998 -2.94373 282.876 -0.472701 285.184Z" fill="white"/>
<path d="M28.4231 312.169C30.8941 314.476 34.7718 314.34 37.0842 311.863C39.3965 309.387 39.2678 305.509 36.7968 303.202C34.3257 300.894 30.4481 301.031 28.1358 303.507C25.8234 305.983 25.9521 309.861 28.4231 312.169Z" fill="white"/>
<path d="M57.319 339.153C59.7901 341.461 63.6678 341.324 65.9801 338.848C68.2924 336.372 68.1637 332.494 65.6927 330.186C63.2217 327.879 59.344 328.015 57.0317 330.492C54.7194 332.968 54.848 336.846 57.319 339.153Z" fill="white"/>
<path d="M-3.72428 230.739C-1.25325 233.046 2.62442 232.91 4.93673 230.434C7.24905 227.957 7.1204 224.079 4.64937 221.772C2.17834 219.464 -1.69934 219.601 -4.01166 222.077C-6.32398 224.553 -6.19532 228.431 -3.72428 230.739Z" fill="white"/>
<path d="M25.1716 257.723C27.6426 260.031 31.5203 259.894 33.8326 257.418C36.1449 254.942 36.0163 251.064 33.5452 248.757C31.0742 246.449 27.1965 246.586 24.8842 249.062C22.5719 251.538 22.7006 255.416 25.1716 257.723Z" fill="white"/>
<path d="M54.0674 284.708C56.5384 287.016 60.4161 286.879 62.7284 284.403C65.0408 281.927 64.9121 278.049 62.4411 275.741C59.97 273.434 56.0924 273.57 53.78 276.046C51.4677 278.522 51.5964 282.4 54.0674 284.708Z" fill="white"/>
<path d="M82.9633 311.693C85.4344 314 89.312 313.864 91.6244 311.388C93.9367 308.911 93.808 305.034 91.337 302.726C88.866 300.418 84.9883 300.555 82.676 303.031C80.3636 305.507 80.4923 309.385 82.9633 311.693Z" fill="white"/>
<path d="M-7.15032 176.48C-4.67929 178.788 -0.801623 178.651 1.5107 176.175C3.82303 173.699 3.69437 169.821 1.22334 167.513C-1.24769 165.206 -5.12537 165.342 -7.43769 167.819C-9.75001 170.295 -9.62135 174.173 -7.15032 176.48Z" fill="white"/>
<path d="M21.7456 203.465C24.2166 205.772 28.0943 205.636 30.4066 203.16C32.7189 200.684 32.5903 196.806 30.1192 194.498C27.6482 192.191 23.7705 192.327 21.4582 194.803C19.1459 197.279 19.2745 201.157 21.7456 203.465Z" fill="white"/>
<path d="M50.6414 230.45C53.1125 232.757 56.9901 232.621 59.3025 230.144C61.6148 227.668 61.4861 223.79 59.0151 221.483C56.5441 219.175 52.6664 219.312 50.3541 221.788C48.0417 224.264 48.1704 228.142 50.6414 230.45Z" fill="white"/>
<path d="M79.5373 257.434C82.0083 259.742 85.886 259.605 88.1983 257.129C90.5106 254.653 90.382 250.775 87.911 248.468C85.4399 246.16 81.5623 246.297 79.2499 248.773C76.9376 251.249 77.0663 255.127 79.5373 257.434Z" fill="white"/>
<path d="M108.433 284.419C110.904 286.727 114.782 286.59 117.094 284.114C119.406 281.638 119.278 277.76 116.807 275.452C114.336 273.145 110.458 273.281 108.146 275.757C105.833 278.233 105.962 282.111 108.433 284.419Z" fill="white"/>
<path d="M137.329 311.404C139.8 313.711 143.678 313.575 145.99 311.099C148.302 308.622 148.174 304.745 145.703 302.437C143.232 300.129 139.354 300.266 137.042 302.742C134.729 305.218 134.858 309.096 137.329 311.404Z" fill="white"/>
<path d="M-10.5763 122.222C-8.10531 124.529 -4.22764 124.393 -1.91532 121.917C0.397006 119.441 0.268344 115.563 -2.20269 113.255C-4.67372 110.947 -8.55138 111.084 -10.8637 113.56C-13.176 116.036 -13.0474 119.914 -10.5763 122.222Z" fill="white"/>
<path d="M18.3195 149.206C20.7906 151.514 24.6682 151.377 26.9806 148.901C29.2929 146.425 29.1642 142.547 26.6932 140.24C24.2222 137.932 20.3445 138.069 18.0322 140.545C15.7198 143.021 15.8485 146.899 18.3195 149.206Z" fill="white"/>
<path d="M47.2154 176.191C49.6864 178.499 53.5641 178.362 55.8764 175.886C58.1888 173.41 58.0601 169.532 55.5891 167.224C53.118 164.917 49.2404 165.053 46.928 167.529C44.6157 170.006 44.7444 173.884 47.2154 176.191Z" fill="white"/>
<path d="M76.1113 203.176C78.5823 205.483 82.46 205.347 84.7723 202.871C87.0846 200.395 86.956 196.517 84.4849 194.209C82.0139 191.901 78.1362 192.038 75.8239 194.514C73.5116 196.99 73.6403 200.868 76.1113 203.176Z" fill="white"/>
<path d="M105.007 230.16C107.478 232.468 111.356 232.331 113.668 229.855C115.981 227.379 115.852 223.501 113.381 221.194C110.91 218.886 107.032 219.023 104.72 221.499C102.407 223.975 102.536 227.853 105.007 230.16Z" fill="white"/>
<path d="M133.903 257.145C136.374 259.453 140.252 259.316 142.564 256.84C144.876 254.364 144.748 250.486 142.277 248.178C139.806 245.871 135.928 246.007 133.616 248.484C131.303 250.96 131.432 254.838 133.903 257.145Z" fill="white"/>
<path d="M162.799 284.13C165.27 286.437 169.148 286.301 171.46 283.825C173.772 281.349 173.644 277.471 171.173 275.163C168.702 272.856 164.824 272.992 162.512 275.468C160.199 277.944 160.328 281.822 162.799 284.13Z" fill="white"/>
<path d="M14.8935 94.9479C17.3645 97.2555 21.2422 97.119 23.5545 94.6429C25.8668 92.1668 25.7382 88.2888 23.2672 85.9812C20.7961 83.6736 16.9185 83.8102 14.6061 86.2863C12.2938 88.7624 12.4225 92.6404 14.8935 94.9479Z" fill="white"/>
<path d="M43.7894 121.933C46.2604 124.24 50.1381 124.104 52.4504 121.628C54.7627 119.151 54.6341 115.274 52.163 112.966C49.692 110.658 45.8143 110.795 43.502 113.271C41.1897 115.747 41.3184 119.625 43.7894 121.933Z" fill="white"/>
<path d="M72.6853 148.917C75.1563 151.225 79.034 151.088 81.3463 148.612C83.6586 146.136 83.5299 142.258 81.0589 139.951C78.5879 137.643 74.7102 137.78 72.3979 140.256C70.0856 142.732 70.2142 146.61 72.6853 148.917Z" fill="white"/>
<path d="M101.581 175.902C104.052 178.21 107.93 178.073 110.242 175.597C112.554 173.121 112.426 169.243 109.955 166.935C107.484 164.628 103.606 164.764 101.294 167.24C98.9814 169.716 99.1101 173.594 101.581 175.902Z" fill="white"/>
<path d="M130.477 202.887C132.948 205.194 136.826 205.058 139.138 202.582C141.45 200.106 141.322 196.228 138.851 193.92C136.38 191.612 132.502 191.749 130.19 194.225C127.877 196.701 128.006 200.579 130.477 202.887Z" fill="white"/>
<path d="M159.373 229.871C161.844 232.179 165.722 232.042 168.034 229.566C170.346 227.09 170.218 223.212 167.747 220.905C165.276 218.597 161.398 218.734 159.086 221.21C156.773 223.686 156.902 227.564 159.373 229.871Z" fill="white"/>
<path d="M40.5379 67.4874C43.0089 69.795 46.8866 69.6584 49.1989 67.1823C51.5112 64.7062 51.3825 60.8283 48.9115 58.5207C46.4405 56.2131 42.5628 56.3497 40.2505 58.8258C37.9382 61.3019 38.0668 65.1798 40.5379 67.4874Z" fill="white"/>
<path d="M69.4337 94.4721C71.9048 96.7797 75.7824 96.6431 78.0948 94.167C80.4071 91.6909 80.2784 87.813 77.8074 85.5054C75.3364 83.1978 71.4587 83.3344 69.1464 85.8105C66.834 88.2866 66.9627 92.1645 69.4337 94.4721Z" fill="white"/>
<path d="M98.3296 121.457C100.801 123.764 104.678 123.628 106.991 121.152C109.303 118.676 109.174 114.798 106.703 112.49C104.232 110.182 100.355 110.319 98.0422 112.795C95.7299 115.271 95.8586 119.149 98.3296 121.457Z" fill="white"/>
<path d="M127.225 148.441C129.696 150.749 133.574 150.612 135.886 148.136C138.199 145.66 138.07 141.782 135.599 139.475C133.128 137.167 129.25 137.304 126.938 139.78C124.626 142.256 124.754 146.134 127.225 148.441Z" fill="white"/>
<path d="M156.121 175.426C158.592 177.734 162.47 177.597 164.782 175.121C167.095 172.645 166.966 168.767 164.495 166.459C162.024 164.152 158.146 164.288 155.834 166.765C153.522 169.241 153.65 173.119 156.121 175.426Z" fill="white"/>
<path d="M185.017 202.411C187.488 204.718 191.366 204.582 193.678 202.106C195.991 199.63 195.862 195.752 193.391 193.444C190.92 191.137 187.042 191.273 184.73 193.749C182.417 196.225 182.546 200.103 185.017 202.411Z" fill="white"/>
<path d="M94.9036 67.1984C97.3746 69.506 101.252 69.3694 103.565 66.8933C105.877 64.4172 105.748 60.5392 103.277 58.2316C100.806 55.924 96.9285 56.0606 94.6162 58.5367C92.3039 61.0128 92.4326 64.8908 94.9036 67.1984Z" fill="white"/>
<path d="M123.799 94.183C126.27 96.4906 130.148 96.354 132.46 93.878C134.773 91.4019 134.644 87.5239 132.173 85.2163C129.702 82.9087 125.824 83.0453 123.512 85.5214C121.2 87.9975 121.328 91.8754 123.799 94.183Z" fill="white"/>
<path d="M152.695 121.168C155.166 123.475 159.044 123.339 161.356 120.863C163.669 118.387 163.54 114.509 161.069 112.201C158.598 109.893 154.72 110.03 152.408 112.506C150.096 114.982 150.224 118.86 152.695 121.168Z" fill="white"/>
<path d="M181.591 148.152C184.062 150.46 187.94 150.323 190.252 147.847C192.564 145.371 192.436 141.493 189.965 139.186C187.494 136.878 183.616 137.015 181.304 139.491C178.991 141.967 179.12 145.845 181.591 148.152Z" fill="white"/>
<circle cx="62.1777" cy="103.178" r="55.3125" transform="rotate(43.0412 62.1777 103.178)" fill="#DFA911"/>
</g>
<defs>
<clipPath id="clip0">
<rect width="289" height="274" fill="white" transform="translate(41.0113 0.0839844) rotate(43.0412)"/>
</clipPath>
</defs>
</svg>
