<svg width="369" height="318" viewBox="0 0 369 318" fill="none" xmlns="http://www.w3.org/2000/svg">
<g clip-path="url(#clip0)">
<path d="M117.857 43.9099C114.891 28.0136 119.561 9.92888 132.541 0.306854C131.805 17.8773 137.3 35.142 148.053 49.0462C152.219 54.3935 157.41 59.9065 157.248 66.6868C157.148 70.9057 154.869 74.836 151.867 77.7969C148.864 80.7579 145.165 82.8927 141.51 84.9942L140.941 85.8804C130.227 73.7797 120.824 59.8062 117.857 43.9099Z" fill="#F0F0F0"/>
<path d="M132.777 0.549867C127.324 12.7707 125.855 26.4014 128.579 39.5059C129.115 42.3374 130.094 45.0666 131.479 47.593C132.907 50.0103 134.957 52.0004 137.413 53.3566C139.678 54.6672 142.147 55.7451 144.054 57.5842C145.017 58.5401 145.767 59.689 146.255 60.9554C146.742 62.2218 146.958 63.5772 146.886 64.9327C146.794 68.3149 145.495 71.4625 144.117 74.4964C142.587 77.8649 140.945 81.3395 141.045 85.1267C141.057 85.5855 140.345 85.5774 140.333 85.1192C140.16 78.5302 144.918 73.2384 145.978 66.916C146.472 63.9659 146.082 60.8486 144.011 58.5618C142.199 56.5621 139.655 55.4483 137.35 54.1412C134.934 52.8534 132.87 50.9928 131.338 48.7221C129.828 46.2745 128.746 43.5876 128.138 40.7765C126.666 34.4697 126.194 27.9704 126.739 21.5168C127.32 14.1479 129.156 6.93281 132.166 0.183703C132.353 -0.233947 132.963 0.134939 132.777 0.549858L132.777 0.549867Z" fill="white"/>
<path d="M127.454 35.338C125.196 35.4971 122.955 34.8475 121.132 33.505C119.308 32.1625 118.02 30.2147 117.499 28.0094C117.395 27.5628 118.083 27.38 118.187 27.8271C118.669 29.8816 119.869 31.6959 121.569 32.9425C123.27 34.1892 125.36 34.786 127.461 34.6253C127.918 34.591 127.908 35.3039 127.454 35.338Z" fill="white"/>
<path d="M136.177 52.8436C139.242 49.373 140.888 44.8732 140.787 40.2414C140.777 39.7825 141.488 39.7905 141.499 40.2489C141.595 45.069 139.873 49.7483 136.675 53.3528C136.37 53.6961 135.874 53.185 136.177 52.8436Z" fill="white"/>
<path d="M128.154 14.5905C129.04 14.7112 129.943 14.6096 130.78 14.2947C131.618 13.9799 132.364 13.4617 132.952 12.7867C133.253 12.4396 133.749 12.9511 133.45 13.2959C132.797 14.0387 131.972 14.61 131.048 14.9599C130.123 15.3098 129.127 15.4277 128.147 15.3032C128.053 15.2992 127.965 15.2598 127.899 15.1929C127.834 15.126 127.796 15.0367 127.794 14.9431C127.796 14.8488 127.834 14.7588 127.902 14.6928C127.969 14.6267 128.06 14.59 128.154 14.5905Z" fill="white"/>
<path d="M185.621 13.4555C185.44 13.6775 185.258 13.8996 185.078 14.1275C182.654 17.1254 180.477 20.3156 178.568 23.6666C178.416 23.9234 178.267 24.1858 178.123 24.4464C173.611 32.5688 170.644 41.4594 169.373 50.6663C168.871 54.3304 168.647 58.0275 168.705 61.7255C168.786 66.8326 169.278 72.3636 167.715 77.0607C167.557 77.5526 167.369 78.0342 167.152 78.5028L142.065 86.5066C141.998 86.4961 141.934 86.4915 141.867 86.4811L140.88 86.8465C140.864 86.656 140.851 86.4581 140.835 86.2676C140.825 86.1571 140.821 86.0448 140.811 85.9343C140.806 85.8601 140.801 85.7858 140.793 85.7191C140.791 85.6945 140.79 85.6696 140.79 85.6506C140.781 85.5839 140.78 85.5211 140.774 85.4601C140.699 84.3539 140.63 83.2458 140.573 82.134C140.571 82.1283 140.571 82.1283 140.575 82.1208C140.144 73.6532 140.416 65.0752 141.979 56.8112C142.026 56.5626 142.071 56.3083 142.129 56.056C142.855 52.3349 143.882 48.6794 145.202 45.126C145.932 43.1825 146.758 41.2773 147.68 39.4176C150.07 34.617 153.199 30.2227 156.953 26.3958C164.438 18.768 174.275 13.622 184.816 13.46C185.085 13.456 185.35 13.4537 185.621 13.4555Z" fill="#F0F0F0"/>
<path d="M185.666 13.7923C173.964 20.2624 164.595 30.2601 158.891 42.3653C157.616 44.9495 156.757 47.7186 156.344 50.5708C156.031 53.3622 156.471 56.1865 157.617 58.7503C158.637 61.1623 159.96 63.5112 160.377 66.1296C160.571 67.4731 160.479 68.8424 160.107 70.1477C159.735 71.4531 159.092 72.665 158.22 73.7039C156.113 76.3493 153.183 78.0791 150.259 79.6709C147.012 81.4383 143.612 83.2226 141.414 86.3062C141.147 86.6798 140.584 86.2442 140.85 85.8712C144.674 80.5061 151.654 79.149 156.302 74.74C158.471 72.6827 160.033 69.9585 159.755 66.8838C159.511 64.1952 158.149 61.7718 157.094 59.3386C155.94 56.8539 155.41 54.1239 155.552 51.3872C155.819 48.5232 156.57 45.7255 157.775 43.1139C160.392 37.1912 163.923 31.7174 168.238 26.893C173.133 21.3596 178.937 16.7054 185.399 13.1317C185.799 12.9107 186.064 13.5727 185.666 13.7923Z" fill="white"/>
<path d="M160.498 38.3592C158.6 37.1251 157.202 35.2555 156.553 33.0843C155.904 30.9131 156.047 28.5816 156.957 26.5062C157.142 26.087 157.801 26.3558 157.616 26.7756C156.765 28.7066 156.632 30.8784 157.24 32.8991C157.849 34.9197 159.158 36.656 160.933 37.7947C161.318 38.0426 160.882 38.6057 160.498 38.3592Z" fill="white"/>
<path d="M156.938 57.5956C161.472 56.6723 165.492 54.0718 168.196 50.3126C168.464 49.9399 169.027 50.3754 168.76 50.7476C165.939 54.6543 161.75 57.352 157.03 58.3024C156.58 58.3927 156.491 57.6854 156.938 57.5956V57.5956Z" fill="white"/>
<path d="M173.532 22.2157C174.168 22.8465 174.949 23.3094 175.807 23.5629C176.665 23.8164 177.573 23.8526 178.448 23.6681C178.897 23.5722 178.985 24.2796 178.54 24.3749C177.571 24.5742 176.569 24.533 175.621 24.2551C174.672 23.9771 173.806 23.4707 173.098 22.7802C173.026 22.7208 172.979 22.636 172.967 22.5432C172.955 22.4503 172.979 22.3564 173.033 22.2804C173.091 22.206 173.176 22.1574 173.27 22.1453C173.363 22.1332 173.458 22.1585 173.532 22.2157V22.2157Z" fill="white"/>
<path d="M261.064 120.504C261.13 120.795 261.173 121.091 261.193 121.389L284.364 134.774L289.996 131.528L296 139.398L286.588 146.116C285.827 146.659 284.911 146.94 283.978 146.917C283.044 146.894 282.143 146.569 281.41 145.99L257.517 127.115C256.439 127.515 255.264 127.576 254.15 127.292C253.036 127.007 252.035 126.389 251.281 125.52C250.526 124.652 250.053 123.574 249.925 122.43C249.797 121.286 250.019 120.13 250.564 119.115C251.108 118.101 251.947 117.277 252.971 116.752C253.994 116.227 255.153 116.027 256.293 116.177C257.433 116.328 258.5 116.823 259.352 117.596C260.204 118.368 260.801 119.383 261.064 120.504Z" fill="#FFB6B6"/>
<path d="M284.686 133.297C284.759 132.955 284.905 132.634 285.114 132.354C285.323 132.074 285.59 131.843 285.896 131.676L296.594 125.84C298.019 124.763 299.811 124.296 301.579 124.541C303.347 124.786 304.946 125.723 306.025 127.147C307.104 128.57 307.575 130.365 307.335 132.135C307.095 133.906 306.163 135.51 304.744 136.594L296.17 145.315C295.925 145.564 295.63 145.757 295.304 145.882C294.978 146.006 294.629 146.058 294.281 146.035C293.933 146.012 293.594 145.915 293.287 145.749C292.98 145.583 292.712 145.353 292.502 145.074L285.12 135.273C284.91 134.995 284.763 134.674 284.688 134.333C284.613 133.991 284.612 133.638 284.686 133.297Z" fill="#3F3D56"/>
<path d="M303.314 99.8399C304.853 94.9281 308.353 90.4232 313.194 88.7627C318.035 87.1022 325.123 89.6317 328.762 93.2634C335.419 99.9066 335.624 108.039 331.05 115.251C330.141 115.203 327.002 115.167 326.081 115.133L324.778 110.786V115.09C317.592 114.867 310.11 115.007 302.624 115.151C301.953 110.045 301.775 104.752 303.314 99.8399Z" fill="#2F2E41"/>
<path d="M301.738 305.537H295.183L292.065 280.221L301.739 280.221L301.738 305.537Z" fill="#FFB6B6"/>
<path d="M342.136 305.537H335.581L332.463 280.221L342.137 280.221L342.136 305.537Z" fill="#FFB6B6"/>
<path d="M322.996 150.047L324.481 153.914L324.184 157.781L295.117 167.862L296.559 150.94L299.826 147.073L322.996 150.047Z" fill="#FFB6B6"/>
<path d="M313.806 115.251C319.539 115.251 324.187 110.597 324.187 104.856C324.187 99.1146 319.539 94.4603 313.806 94.4603C308.072 94.4603 303.424 99.1146 303.424 104.856C303.424 110.597 308.072 115.251 313.806 115.251Z" fill="#FFB7B7"/>
<path d="M329.504 167.79V174.397C329.504 174.397 337.227 184.447 333.069 192.18L344.985 295.097H332.509L311.682 208.242L302.804 293.313H292.111L290.836 225.654C290.501 207.858 293.468 190.154 299.587 173.442L329.504 167.79Z" fill="#DFA911"/>
<path d="M306.672 91.3191C308.667 90.1014 310.952 89.4426 313.288 89.4118C315.624 89.381 317.925 89.9791 319.951 91.1438C321.977 92.3084 323.654 93.9967 324.805 96.0322C325.957 98.0677 326.541 100.375 326.497 102.714C320.694 102.982 314.598 103.051 308.416 103.063L306.956 99.4832L306.094 103.066C304.211 103.066 302.324 103.063 300.433 103.058C300.356 100.726 300.892 98.4143 301.986 96.3542C303.081 94.2942 304.697 92.5579 306.672 91.3191Z" fill="#2F2E41"/>
<path d="M304.67 318H300.019L299.189 313.603L297.062 318H284.726C284.135 318 283.559 317.811 283.083 317.46C282.607 317.109 282.255 316.615 282.079 316.05C281.903 315.484 281.912 314.878 282.105 314.318C282.298 313.758 282.664 313.275 283.151 312.938L293.002 306.126V301.68L303.364 302.3L304.67 318Z" fill="#2F2E41"/>
<path d="M345.662 318H341.011L340.181 313.603L338.055 318H325.719C325.127 318 324.551 317.811 324.075 317.46C323.599 317.109 323.247 316.615 323.071 316.05C322.895 315.484 322.904 314.878 323.097 314.318C323.29 313.758 323.656 313.275 324.143 312.938L333.994 306.126V301.68L344.356 302.3L345.662 318Z" fill="#2F2E41"/>
<path d="M334.228 188.979C334.805 181.039 334.21 173.057 332.463 165.291C330.258 155.489 327.456 143.017 327.402 142.695C327.401 142.688 327.4 142.682 327.4 142.676L326.546 124.407C326.544 124.354 326.521 124.303 326.484 124.266C326.446 124.229 326.396 124.207 326.343 124.205L320.436 124.007C320.381 124.005 320.329 123.982 320.291 123.942C320.253 123.903 320.232 123.85 320.232 123.796C320.232 123.355 320.145 122.919 319.977 122.512C319.808 122.104 319.561 121.735 319.25 121.423C318.939 121.111 318.57 120.864 318.163 120.696C317.757 120.527 317.321 120.44 316.881 120.44H305.083C304.318 120.44 303.581 120.72 303.008 121.226C302.435 121.733 302.066 122.431 301.971 123.19C301.966 123.243 301.941 123.291 301.902 123.326C301.862 123.36 301.811 123.379 301.759 123.378L297.168 123.223C297.122 123.222 297.077 123.235 297.039 123.262C297.001 123.289 296.974 123.327 296.96 123.371L296.64 124.387C292.006 139.331 290.719 155.115 292.872 170.614C293.428 174.739 293.175 180.941 292.965 184.396C292.944 184.733 292.99 185.072 293.101 185.392C293.211 185.712 293.383 186.007 293.608 186.26C293.832 186.513 294.104 186.719 294.408 186.867C294.712 187.014 295.043 187.1 295.38 187.119C303.915 187.611 328.08 199.319 333.866 193.729C333.879 193.715 334.034 191.653 334.228 188.979Z" fill="#3F3D56"/>
<path d="M286.896 120.504C286.962 120.795 287.006 121.091 287.025 121.389L310.196 134.774L315.828 131.528L321.832 139.398L312.42 146.116C311.659 146.659 310.744 146.94 309.81 146.917C308.877 146.894 307.976 146.569 307.243 145.99L283.349 127.115C282.271 127.515 281.097 127.576 279.983 127.292C278.869 127.007 277.868 126.389 277.113 125.52C276.358 124.652 275.885 123.574 275.757 122.43C275.629 121.286 275.852 120.13 276.396 119.115C276.94 118.101 277.779 117.277 278.803 116.752C279.826 116.227 280.985 116.027 282.125 116.177C283.265 116.328 284.332 116.823 285.184 117.596C286.037 118.368 286.634 119.383 286.896 120.504Z" fill="#FFB6B6"/>
<path d="M310.518 133.297C310.592 132.955 310.738 132.634 310.947 132.354C311.156 132.074 311.422 131.843 311.729 131.676L322.426 125.84C323.851 124.763 325.644 124.297 327.411 124.542C329.179 124.787 330.777 125.724 331.856 127.148C332.935 128.571 333.406 130.365 333.166 132.136C332.926 133.906 331.995 135.51 330.576 136.594L322.002 145.315C321.757 145.564 321.462 145.757 321.136 145.882C320.81 146.006 320.461 146.058 320.113 146.035C319.765 146.013 319.426 145.915 319.119 145.749C318.812 145.583 318.545 145.353 318.335 145.074L310.953 135.273C310.743 134.995 310.595 134.674 310.52 134.333C310.445 133.991 310.444 133.638 310.518 133.297Z" fill="#3F3D56"/>
<path d="M27.0331 281.935C41.9631 281.935 54.0662 269.816 54.0662 254.866C54.0662 239.917 41.9631 227.798 27.0331 227.798C12.1031 227.798 0 239.917 0 254.866C0 269.816 12.1031 281.935 27.0331 281.935Z" fill="#F0F0F0"/>
<path d="M265.917 160.934L70.0123 250.997C67.2238 252.275 64.0428 252.394 61.1672 251.326C58.2916 250.259 55.9562 248.093 54.6735 245.304L6.32904 139.866C5.05261 137.073 4.93441 133.888 6.00036 131.009C7.06632 128.129 9.22939 125.791 12.015 124.506L207.92 34.4434C210.708 33.1653 213.889 33.047 216.765 34.1143C219.64 35.1817 221.976 37.3476 223.258 40.137L271.603 145.575C272.879 148.367 272.998 151.552 271.932 154.432C270.866 157.311 268.703 159.65 265.917 160.934Z" fill="white"/>
<path d="M15.2735 131.613C14.3685 132.03 13.6658 132.79 13.3195 133.725C12.9732 134.661 13.0116 135.696 13.4263 136.603L61.7708 242.041C62.1875 242.947 62.9462 243.65 63.8804 243.997C64.8146 244.344 65.848 244.306 66.7538 243.89L262.659 153.827C263.564 153.41 264.266 152.65 264.613 151.715C264.959 150.78 264.92 149.745 264.506 148.838L216.161 43.3997C215.745 42.4936 214.986 41.79 214.052 41.4432C213.118 41.0965 212.084 41.1349 211.178 41.5501L15.2735 131.613Z" fill="#E4E4E4"/>
<path d="M265.917 160.934L70.0123 250.997C67.2238 252.275 64.0428 252.394 61.1672 251.326C58.2916 250.259 55.9562 248.093 54.6735 245.304L6.32904 139.866C5.05261 137.073 4.93441 133.888 6.00036 131.009C7.06632 128.129 9.22939 125.791 12.015 124.506L207.92 34.4434C210.708 33.1653 213.889 33.047 216.765 34.1143C219.64 35.1817 221.976 37.3476 223.258 40.137L271.603 145.575C272.879 148.367 272.998 151.552 271.932 154.432C270.866 157.311 268.703 159.65 265.917 160.934ZM12.5163 125.6C10.02 126.751 8.08155 128.846 7.12632 131.427C6.17109 134.007 6.27704 136.861 7.42091 139.364L55.7654 244.802C56.9149 247.301 59.0077 249.242 61.5846 250.199C64.1615 251.155 67.0121 251.049 69.511 249.904L265.416 159.841C267.912 158.69 269.85 156.594 270.806 154.014C271.761 151.433 271.655 148.579 270.511 146.077L222.167 40.6389C221.017 38.1393 218.924 36.1983 216.347 35.2418C213.77 34.2853 210.92 34.3914 208.421 35.5368L12.5163 125.6Z" fill="#CACACA"/>
<path d="M216.965 113.088L61.3307 184.638C60.0772 185.212 58.6772 185.384 57.322 185.132C55.9668 184.88 54.7224 184.215 53.7585 183.228L8.22303 136.47C7.47622 135.703 6.92419 134.768 6.61333 133.743C6.30248 132.718 6.24188 131.633 6.43664 130.58C6.6314 129.527 7.07582 128.536 7.73255 127.69C8.38927 126.845 9.23909 126.169 10.2106 125.721L209.666 33.6541C210.624 33.2118 211.674 33.0032 212.729 33.0455C213.784 33.0877 214.814 33.3796 215.734 33.8972C216.655 34.4148 217.44 35.1435 218.025 36.0234C218.61 36.9033 218.978 37.9095 219.1 38.9595L219.127 38.9588L220.857 106.837C220.892 108.146 220.541 109.436 219.849 110.548C219.157 111.659 218.154 112.542 216.965 113.088ZM210.175 34.7435L10.7134 126.814C9.91656 127.182 9.21953 127.735 8.68089 128.429C8.14225 129.122 7.77775 129.935 7.618 130.799C7.45826 131.663 7.50795 132.552 7.76291 133.393C8.01786 134.234 8.47063 135.001 9.08314 135.63L54.6186 182.388C55.4091 183.198 56.4298 183.743 57.5414 183.95C58.653 184.157 59.8013 184.015 60.8294 183.544L216.464 111.995C217.439 111.547 218.262 110.823 218.829 109.911C219.397 109 219.684 107.941 219.656 106.867L217.941 39.5909L218.181 39.585L217.941 39.5909C217.918 38.6831 217.67 37.7952 217.22 37.0068C216.77 36.2185 216.131 35.5543 215.362 35.0739C214.592 34.5935 213.715 34.3118 212.81 34.2542C211.905 34.1965 211 34.3646 210.175 34.7435Z" fill="#CACACA"/>
<path d="M119.368 209.882L70.879 232.174C70.5271 232.336 70.1468 232.427 69.7598 232.442C69.3727 232.457 68.9865 232.396 68.6232 232.261C68.26 232.126 67.9268 231.921 67.6427 231.658C67.3586 231.394 67.1292 231.077 66.9676 230.724C66.806 230.372 66.7153 229.991 66.7008 229.603C66.6863 229.216 66.7482 228.829 66.883 228.466C67.0178 228.102 67.2229 227.769 67.4865 227.484C67.75 227.2 68.067 226.971 68.4191 226.809L116.908 204.517C117.619 204.192 118.429 204.162 119.162 204.434C119.894 204.706 120.489 205.258 120.815 205.969C121.141 206.68 121.171 207.492 120.9 208.226C120.629 208.959 120.078 209.555 119.368 209.882Z" fill="white"/>
<path d="M154.842 140.986C155.675 142.797 156.142 144.754 156.219 146.746C156.295 148.738 155.979 150.726 155.288 152.595C154.597 154.465 153.545 156.18 152.191 157.642C150.838 159.104 149.21 160.284 147.401 161.116C145.592 161.948 143.636 162.414 141.647 162.489C139.658 162.564 137.673 162.245 135.806 161.551C133.94 160.858 132.229 159.802 130.77 158.446C129.311 157.089 128.133 155.458 127.304 153.646" fill="#CACACA"/>
<path d="M264.17 304.347H48.6045C45.5377 304.344 42.5975 303.122 40.4289 300.951C38.2604 298.779 37.0405 295.835 37.0371 292.764V176.745C37.0406 173.674 38.2604 170.73 40.429 168.558C42.5975 166.387 45.5377 165.166 48.6045 165.162H264.17C267.237 165.166 270.177 166.387 272.346 168.558C274.514 170.73 275.734 173.674 275.737 176.745V292.764C275.734 295.835 274.514 298.779 272.346 300.951C270.177 303.122 267.237 304.344 264.17 304.347Z" fill="white"/>
<path d="M48.6045 172.982C47.6082 172.983 46.653 173.38 45.9486 174.085C45.2441 174.791 44.8478 175.747 44.8467 176.745V292.764C44.8478 293.762 45.2441 294.719 45.9486 295.424C46.653 296.129 47.6082 296.526 48.6045 296.527H264.17C265.166 296.526 266.122 296.129 266.826 295.424C267.53 294.719 267.927 293.762 267.928 292.764V176.745C267.927 175.747 267.53 174.791 266.826 174.085C266.122 173.38 265.166 172.983 264.17 172.982H48.6045Z" fill="#DFA911"/>
<path d="M264.17 304.347H48.6045C45.5377 304.344 42.5975 303.122 40.4289 300.951C38.2604 298.779 37.0405 295.835 37.0371 292.764V176.745C37.0406 173.674 38.2604 170.73 40.429 168.558C42.5975 166.387 45.5377 165.166 48.6045 165.162H264.17C267.237 165.166 270.177 166.387 272.346 168.558C274.514 170.73 275.734 173.674 275.737 176.745V292.764C275.734 295.835 274.514 298.779 272.346 300.951C270.177 303.122 267.237 304.344 264.17 304.347ZM48.6045 166.365C45.8562 166.368 43.2214 167.463 41.2781 169.409C39.3348 171.355 38.2417 173.993 38.2386 176.745V292.764C38.2417 295.516 39.3348 298.155 41.2781 300.101C43.2214 302.046 45.8562 303.141 48.6045 303.144H264.17C266.918 303.141 269.553 302.046 271.496 300.101C273.44 298.155 274.533 295.516 274.536 292.764V176.745C274.533 173.993 273.44 171.355 271.496 169.409C269.553 167.463 266.918 166.368 264.17 166.365H48.6045Z" fill="#3F3D56"/>
<path d="M239.62 240.413H68.3663C66.9879 240.411 65.6436 239.983 64.5171 239.188C63.3906 238.392 62.5367 237.268 62.0719 235.969L40.1735 174.45C39.8144 173.441 39.7024 172.361 39.8469 171.299C39.9915 170.238 40.3884 169.227 41.0043 168.351C41.6201 167.475 42.437 166.76 43.3861 166.266C44.3352 165.772 45.3889 165.514 46.4587 165.512L266.086 165.174C267.141 165.173 268.182 165.422 269.124 165.901C270.065 166.38 270.879 167.076 271.5 167.931C272.121 168.786 272.53 169.776 272.695 170.82C272.86 171.864 272.776 172.932 272.449 173.937L272.474 173.948L245.762 236.358C245.248 237.562 244.391 238.588 243.299 239.309C242.208 240.03 240.928 240.414 239.62 240.413ZM266.095 166.377L46.4603 166.715C45.5829 166.716 44.7187 166.929 43.9402 167.334C43.1617 167.739 42.4918 168.325 41.9866 169.044C41.4815 169.762 41.156 170.591 41.0374 171.462C40.9188 172.332 41.0107 173.218 41.3052 174.046L63.2036 235.565C63.5847 236.63 64.2851 237.552 65.2091 238.205C66.1331 238.857 67.2357 239.208 68.3663 239.21H239.62C240.693 239.211 241.742 238.896 242.638 238.305C243.534 237.713 244.236 236.871 244.658 235.884L271.133 174.027L271.353 174.122L271.133 174.027C271.49 173.192 271.635 172.282 271.554 171.377C271.473 170.473 271.17 169.602 270.671 168.844C270.171 168.086 269.492 167.464 268.693 167.033C267.895 166.603 267.002 166.377 266.095 166.377Z" fill="#3F3D56"/>
<path d="M110.591 287.603H57.2356C56.4538 287.603 55.704 287.292 55.1512 286.739C54.5984 286.185 54.2878 285.434 54.2878 284.652C54.2878 283.869 54.5984 283.118 55.1512 282.564C55.704 282.011 56.4538 281.7 57.2356 281.7H110.591C111.373 281.7 112.123 282.011 112.676 282.564C113.228 283.118 113.539 283.869 113.539 284.652C113.539 285.434 113.228 286.185 112.676 286.739C112.123 287.292 111.373 287.603 110.591 287.603Z" fill="white"/>
<path d="M171.538 239.812C171.538 243.835 169.942 247.694 167.101 250.539C164.259 253.384 160.406 254.982 156.387 254.982C152.369 254.982 148.516 253.384 145.674 250.539C142.833 247.694 141.237 243.835 141.237 239.812" fill="#3F3D56"/>
<path d="M75.6927 65.3838C78.6787 65.3838 81.0994 62.96 81.0994 59.97C81.0994 56.9801 78.6787 54.5562 75.6927 54.5562C72.7068 54.5562 70.2861 56.9801 70.2861 59.97C70.2861 62.96 72.7068 65.3838 75.6927 65.3838Z" fill="#F0F0F0"/>
<path d="M5.40662 195.315C8.39261 195.315 10.8132 192.891 10.8132 189.901C10.8132 186.911 8.39261 184.487 5.40662 184.487C2.42063 184.487 0 186.911 0 189.901C0 192.891 2.42063 195.315 5.40662 195.315Z" fill="#F0F0F0"/>
<path d="M275.738 93.6558C278.724 93.6558 281.144 91.232 281.144 88.242C281.144 85.2521 278.724 82.8282 275.738 82.8282C272.752 82.8282 270.331 85.2521 270.331 88.242C270.331 91.232 272.752 93.6558 275.738 93.6558Z" fill="#F0F0F0"/>
<path d="M368.285 318H265.382C265.193 318 265.011 317.925 264.877 317.79C264.742 317.656 264.667 317.474 264.667 317.284C264.667 317.094 264.742 316.912 264.877 316.777C265.011 316.643 265.193 316.568 265.382 316.568H368.285C368.474 316.568 368.655 316.644 368.789 316.778C368.923 316.912 368.998 317.094 368.998 317.284C368.998 317.473 368.923 317.655 368.789 317.789C368.655 317.924 368.474 317.999 368.285 318Z" fill="#CACACA"/>
</g>
<defs>
<clipPath id="clip0">
<rect width="369" height="318" fill="white"/>
</clipPath>
</defs>
</svg>
