<svg width="217" height="305" viewBox="0 0 217 305" fill="none" xmlns="http://www.w3.org/2000/svg">
<g clip-path="url(#clip0)">
<path d="M267.745 226.71L226.71 37.0335L37.0327 78.0684L78.0676 267.745L267.745 226.71Z" fill="#DFA911"/>
<path d="M28.6369 179.261C43.4142 247.566 110.766 290.959 179.071 276.182C247.376 261.405 290.77 194.053 275.992 125.748C261.215 57.4426 193.863 14.0495 125.558 28.8267C57.2528 43.6039 13.8597 110.956 28.6369 179.261Z" stroke="white" stroke-width="1.655" stroke-miterlimit="10"/>
<path d="M53.7886 173.82C65.5607 228.234 119.215 262.803 173.63 251.031C228.044 239.258 262.613 185.604 250.841 131.189C239.069 76.7747 185.414 42.2062 131 53.9783C76.585 65.7503 42.0165 119.405 53.7886 173.82Z" stroke="white" stroke-width="1.655" stroke-miterlimit="10"/>
<path d="M78.94 168.378C87.7069 208.902 127.665 234.646 168.188 225.879C208.712 217.112 234.456 177.154 225.689 136.631C216.922 96.1069 176.964 70.363 136.441 79.1299C95.917 87.8968 70.1731 127.855 78.94 168.378Z" stroke="white" stroke-width="1.655" stroke-miterlimit="10"/>
<path d="M104.092 162.937C109.853 189.57 136.114 206.489 162.747 200.727C189.38 194.966 206.299 168.705 200.538 142.072C194.776 115.439 168.515 98.5197 141.882 104.281C115.249 110.043 98.3299 136.304 104.092 162.937Z" stroke="white" stroke-width="1.655" stroke-miterlimit="10"/>
<path d="M129.243 157.496C132 170.238 144.564 178.332 157.306 175.576C170.048 172.819 178.143 160.255 175.386 147.513C172.629 134.771 160.065 126.676 147.323 129.433C134.581 132.19 126.487 144.754 129.243 157.496Z" stroke="white" stroke-width="1.655" stroke-miterlimit="10"/>
<path d="M21.8178 221.153C22.2697 223.242 24.3294 224.569 26.4182 224.117C28.5071 223.665 29.8341 221.605 29.3822 219.517C28.9303 217.428 26.8706 216.101 24.7818 216.553C22.6929 217.005 21.3659 219.064 21.8178 221.153Z" fill="white"/>
<path d="M27.0546 245.359C27.5065 247.448 29.5662 248.775 31.6551 248.323C33.7439 247.871 35.0709 245.811 34.619 243.723C34.1671 241.634 32.1074 240.307 30.0186 240.759C27.9297 241.211 26.6027 243.27 27.0546 245.359Z" fill="white"/>
<path d="M32.3322 269.754C32.7841 271.843 34.8438 273.17 36.9326 272.718C39.0215 272.266 40.3485 270.207 39.8966 268.118C39.4447 266.029 37.385 264.702 35.2962 265.154C33.2073 265.606 31.8803 267.665 32.3322 269.754Z" fill="white"/>
<path d="M37.569 293.96C38.0209 296.049 40.0806 297.376 42.1695 296.924C44.2583 296.472 45.5853 294.413 45.1334 292.324C44.6815 290.235 42.6218 288.908 40.533 289.36C38.4441 289.812 37.1171 291.871 37.569 293.96Z" fill="white"/>
<path d="M44.6999 216.203C45.1518 218.292 47.2115 219.619 49.3003 219.167C51.3892 218.715 52.7162 216.655 52.2643 214.566C51.8124 212.477 49.7527 211.15 47.6639 211.602C45.575 212.054 44.248 214.114 44.6999 216.203Z" fill="white"/>
<path d="M49.9367 240.409C50.3886 242.498 52.4483 243.825 54.5372 243.373C56.626 242.921 57.953 240.861 57.5011 238.772C57.0492 236.683 54.9895 235.356 52.9007 235.808C50.8118 236.26 49.4848 238.32 49.9367 240.409Z" fill="white"/>
<path d="M55.2143 264.804C55.6662 266.893 57.7259 268.22 59.8147 267.768C61.9036 267.316 63.2306 265.256 62.7787 263.167C62.3268 261.079 60.2671 259.752 58.1783 260.203C56.0894 260.655 54.7624 262.715 55.2143 264.804Z" fill="white"/>
<path d="M60.4511 289.01C60.903 291.099 62.9627 292.426 65.0516 291.974C67.1404 291.522 68.4674 289.462 68.0155 287.373C67.5636 285.285 65.5039 283.958 63.4151 284.409C61.3262 284.861 59.9992 286.921 60.4511 289.01Z" fill="white"/>
<path d="M67.7714 211.211C68.2233 213.3 70.283 214.627 72.3719 214.175C74.4607 213.723 75.7877 211.664 75.3358 209.575C74.8839 207.486 72.8242 206.159 70.7354 206.611C68.6465 207.063 67.3195 209.123 67.7714 211.211Z" fill="white"/>
<path d="M73.0083 235.417C73.4602 237.506 75.5198 238.833 77.6087 238.381C79.6975 237.93 81.0245 235.87 80.5726 233.781C80.1207 231.692 78.061 230.365 75.9722 230.817C73.8834 231.269 72.5563 233.329 73.0083 235.417Z" fill="white"/>
<path d="M78.2858 259.813C78.7377 261.901 80.7974 263.228 82.8863 262.777C84.9751 262.325 86.3021 260.265 85.8502 258.176C85.3983 256.087 83.3386 254.76 81.2498 255.212C79.1609 255.664 77.8339 257.724 78.2858 259.813Z" fill="white"/>
<path d="M83.5227 284.019C83.9746 286.107 86.0342 287.434 88.1231 286.983C90.2119 286.531 91.5389 284.471 91.087 282.382C90.6351 280.293 88.5755 278.966 86.4866 279.418C84.3978 279.87 83.0708 281.93 83.5227 284.019Z" fill="white"/>
<path d="M88.8003 308.414C89.2522 310.503 91.3118 311.83 93.4007 311.378C95.4895 310.926 96.8165 308.866 96.3646 306.777C95.9127 304.688 93.853 303.361 91.7642 303.813C89.6754 304.265 88.3484 306.325 88.8003 308.414Z" fill="white"/>
<path d="M90.6535 206.261C91.1054 208.35 93.1651 209.677 95.254 209.225C97.3428 208.773 98.6698 206.713 98.2179 204.625C97.766 202.536 95.7063 201.209 93.6175 201.661C91.5286 202.113 90.2016 204.172 90.6535 206.261Z" fill="white"/>
<path d="M95.8903 230.467C96.3422 232.556 98.4019 233.883 100.491 233.431C102.58 232.979 103.907 230.919 103.455 228.831C103.003 226.742 100.943 225.415 98.8543 225.867C96.7654 226.319 95.4384 228.378 95.8903 230.467Z" fill="white"/>
<path d="M101.168 254.862C101.62 256.951 103.68 258.278 105.768 257.826C107.857 257.374 109.184 255.315 108.732 253.226C108.28 251.137 106.221 249.81 104.132 250.262C102.043 250.714 100.716 252.773 101.168 254.862Z" fill="white"/>
<path d="M106.405 279.068C106.857 281.157 108.916 282.484 111.005 282.032C113.094 281.58 114.421 279.521 113.969 277.432C113.517 275.343 111.458 274.016 109.369 274.468C107.28 274.92 105.953 276.979 106.405 279.068Z" fill="white"/>
<path d="M111.682 303.463C112.134 305.552 114.194 306.879 116.283 306.427C118.372 305.975 119.699 303.916 119.247 301.827C118.795 299.738 116.735 298.411 114.646 298.863C112.557 299.315 111.23 301.375 111.682 303.463Z" fill="white"/>
<path d="M113.536 201.311C113.988 203.4 116.047 204.727 118.136 204.275C120.225 203.823 121.552 201.763 121.1 199.674C120.648 197.585 118.589 196.258 116.5 196.71C114.411 197.162 113.084 199.222 113.536 201.311Z" fill="white"/>
<path d="M118.773 225.517C119.225 227.606 121.284 228.933 123.373 228.481C125.462 228.029 126.789 225.969 126.337 223.88C125.885 221.791 123.825 220.464 121.737 220.916C119.648 221.368 118.321 223.428 118.773 225.517Z" fill="white"/>
<path d="M124.05 249.912C124.502 252.001 126.562 253.328 128.651 252.876C130.74 252.424 132.067 250.364 131.615 248.275C131.163 246.187 129.103 244.86 127.014 245.311C124.925 245.763 123.598 247.823 124.05 249.912Z" fill="white"/>
<path d="M129.287 274.118C129.739 276.207 131.799 277.534 133.887 277.082C135.976 276.63 137.303 274.57 136.851 272.481C136.4 270.393 134.34 269.066 132.251 269.517C130.162 269.969 128.835 272.029 129.287 274.118Z" fill="white"/>
<path d="M134.565 298.513C135.017 300.602 137.076 301.929 139.165 301.477C141.254 301.025 142.581 298.965 142.129 296.877C141.677 294.788 139.617 293.461 137.529 293.913C135.44 294.364 134.113 296.424 134.565 298.513Z" fill="white"/>
<path d="M136.418 196.36C136.87 198.449 138.93 199.776 141.019 199.324C143.107 198.872 144.434 196.813 143.983 194.724C143.531 192.635 141.471 191.308 139.382 191.76C137.293 192.212 135.966 194.271 136.418 196.36Z" fill="white"/>
<path d="M141.655 220.566C142.107 222.655 144.167 223.982 146.255 223.53C148.344 223.078 149.671 221.019 149.219 218.93C148.767 216.841 146.708 215.514 144.619 215.966C142.53 216.418 141.203 218.478 141.655 220.566Z" fill="white"/>
<path d="M146.933 244.961C147.384 247.05 149.444 248.377 151.533 247.925C153.622 247.474 154.949 245.414 154.497 243.325C154.045 241.236 151.985 239.909 149.897 240.361C147.808 240.813 146.481 242.873 146.933 244.961Z" fill="white"/>
<path d="M152.169 269.168C152.621 271.256 154.681 272.583 156.77 272.131C158.859 271.68 160.186 269.62 159.734 267.531C159.282 265.442 157.222 264.115 155.133 264.567C153.044 265.019 151.717 267.079 152.169 269.168Z" fill="white"/>
<path d="M157.447 293.563C157.899 295.652 159.959 296.979 162.047 296.527C164.136 296.075 165.463 294.015 165.011 291.926C164.559 289.837 162.5 288.51 160.411 288.962C158.322 289.414 156.995 291.474 157.447 293.563Z" fill="white"/>
<path d="M159.489 191.369C159.941 193.458 162.001 194.785 164.09 194.333C166.179 193.881 167.506 191.821 167.054 189.733C166.602 187.644 164.542 186.317 162.453 186.769C160.365 187.221 159.038 189.28 159.489 191.369Z" fill="white"/>
<path d="M164.726 215.575C165.178 217.664 167.238 218.991 169.327 218.539C171.416 218.087 172.743 216.027 172.291 213.939C171.839 211.85 169.779 210.523 167.69 210.975C165.601 211.427 164.274 213.486 164.726 215.575Z" fill="white"/>
<path d="M170.004 239.97C170.456 242.059 172.515 243.386 174.604 242.934C176.693 242.482 178.02 240.423 177.568 238.334C177.116 236.245 175.057 234.918 172.968 235.37C170.879 235.822 169.552 237.881 170.004 239.97Z" fill="white"/>
<path d="M175.241 264.176C175.693 266.265 177.752 267.592 179.841 267.14C181.93 266.688 183.257 264.629 182.805 262.54C182.353 260.451 180.293 259.124 178.205 259.576C176.116 260.028 174.789 262.087 175.241 264.176Z" fill="white"/>
<path d="M180.518 288.571C180.97 290.66 183.03 291.987 185.119 291.535C187.208 291.083 188.535 289.024 188.083 286.935C187.631 284.846 185.571 283.519 183.482 283.971C181.393 284.423 180.066 286.483 180.518 288.571Z" fill="white"/>
<path d="M182.372 186.419C182.824 188.508 184.883 189.835 186.972 189.383C189.061 188.931 190.388 186.871 189.936 184.782C189.484 182.693 187.425 181.366 185.336 181.818C183.247 182.27 181.92 184.33 182.372 186.419Z" fill="white"/>
<path d="M187.609 210.625C188.06 212.714 190.12 214.041 192.209 213.589C194.298 213.137 195.625 211.077 195.173 208.988C194.721 206.899 192.661 205.572 190.573 206.024C188.484 206.476 187.157 208.536 187.609 210.625Z" fill="white"/>
<path d="M192.886 235.02C193.338 237.109 195.398 238.436 197.487 237.984C199.575 237.532 200.902 235.472 200.451 233.383C199.999 231.295 197.939 229.968 195.85 230.419C193.761 230.871 192.434 232.931 192.886 235.02Z" fill="white"/>
<path d="M198.123 259.226C198.575 261.315 200.635 262.642 202.723 262.19C204.812 261.738 206.139 259.678 205.687 257.589C205.235 255.501 203.176 254.174 201.087 254.625C198.998 255.077 197.671 257.137 198.123 259.226Z" fill="white"/>
<path d="M203.401 283.621C203.852 285.71 205.912 287.037 208.001 286.585C210.09 286.133 211.417 284.073 210.965 281.985C210.513 279.896 208.453 278.569 206.365 279.021C204.276 279.472 202.949 281.532 203.401 283.621Z" fill="white"/>
<path d="M208.637 307.827C209.089 309.916 211.149 311.243 213.238 310.791C215.327 310.339 216.654 308.279 216.202 306.191C215.75 304.102 213.69 302.775 211.601 303.227C209.513 303.679 208.185 305.738 208.637 307.827Z" fill="white"/>
</g>
<defs>
<clipPath id="clip0">
<rect width="256.367" height="256.367" fill="white" transform="translate(250.57) rotate(77.7927)"/>
</clipPath>
</defs>
</svg>
