<svg width="217" height="607" viewBox="0 0 217 607" fill="none" xmlns="http://www.w3.org/2000/svg">
<g clip-path="url(#clip0)">
<path d="M89.4186 607C92.5614 607 95.1092 604.447 95.1092 601.298C95.1092 598.149 92.5614 595.596 89.4186 595.596C86.2758 595.596 83.7281 598.149 83.7281 601.298C83.7281 604.447 86.2758 607 89.4186 607Z" fill="white"/>
<path d="M126.17 607C129.313 607 131.861 604.447 131.861 601.298C131.861 598.149 129.313 595.596 126.17 595.596C123.027 595.596 120.48 598.149 120.48 601.298C120.48 604.447 123.027 607 126.17 607Z" fill="white"/>
<path d="M162.922 607C166.064 607 168.612 604.447 168.612 601.298C168.612 598.149 166.064 595.596 162.922 595.596C159.779 595.596 157.231 598.149 157.231 601.298C157.231 604.447 159.779 607 162.922 607Z" fill="white"/>
<path d="M199.673 607C202.816 607 205.364 604.447 205.364 601.298C205.364 598.149 202.816 595.596 199.673 595.596C196.53 595.596 193.983 598.149 193.983 601.298C193.983 604.447 196.53 607 199.673 607Z" fill="white"/>
<path d="M52.6672 572.312C55.81 572.312 58.3577 569.759 58.3577 566.609C58.3577 563.46 55.81 560.907 52.6672 560.907C49.5244 560.907 46.9766 563.46 46.9766 566.609C46.9766 569.759 49.5244 572.312 52.6672 572.312Z" fill="white"/>
<path d="M89.4187 572.312C92.5615 572.312 95.1092 569.759 95.1092 566.609C95.1092 563.46 92.5615 560.907 89.4187 560.907C86.2759 560.907 83.7281 563.46 83.7281 566.609C83.7281 569.759 86.2759 572.312 89.4187 572.312Z" fill="white"/>
<path d="M126.17 572.312C129.313 572.312 131.861 569.759 131.861 566.609C131.861 563.46 129.313 560.907 126.17 560.907C123.027 560.907 120.48 563.46 120.48 566.609C120.48 569.759 123.027 572.312 126.17 572.312Z" fill="white"/>
<path d="M162.922 572.312C166.064 572.312 168.612 569.759 168.612 566.609C168.612 563.46 166.064 560.907 162.922 560.907C159.779 560.907 157.231 563.46 157.231 566.609C157.231 569.759 159.779 572.312 162.922 572.312Z" fill="white"/>
<path d="M199.673 572.312C202.816 572.312 205.364 569.759 205.364 566.609C205.364 563.46 202.816 560.907 199.673 560.907C196.53 560.907 193.983 563.46 193.983 566.609C193.983 569.759 196.53 572.312 199.673 572.312Z" fill="white"/>
<path d="M52.6672 537.386C55.81 537.386 58.3577 534.833 58.3577 531.683C58.3577 528.534 55.81 525.981 52.6672 525.981C49.5244 525.981 46.9766 528.534 46.9766 531.683C46.9766 534.833 49.5244 537.386 52.6672 537.386Z" fill="white"/>
<path d="M89.4187 537.386C92.5615 537.386 95.1092 534.833 95.1092 531.683C95.1092 528.534 92.5615 525.981 89.4187 525.981C86.2759 525.981 83.7281 528.534 83.7281 531.683C83.7281 534.833 86.2759 537.386 89.4187 537.386Z" fill="white"/>
<path d="M126.17 537.386C129.313 537.386 131.861 534.833 131.861 531.683C131.861 528.534 129.313 525.981 126.17 525.981C123.027 525.981 120.48 528.534 120.48 531.683C120.48 534.833 123.027 537.386 126.17 537.386Z" fill="white"/>
<path d="M162.922 537.386C166.064 537.386 168.612 534.833 168.612 531.683C168.612 528.534 166.064 525.981 162.922 525.981C159.779 525.981 157.231 528.534 157.231 531.683C157.231 534.833 159.779 537.386 162.922 537.386Z" fill="white"/>
<path d="M199.673 537.386C202.816 537.386 205.364 534.833 205.364 531.683C205.364 528.534 202.816 525.981 199.673 525.981C196.53 525.981 193.983 528.534 193.983 531.683C193.983 534.833 196.53 537.386 199.673 537.386Z" fill="white"/>
<path d="M15.9157 502.697C19.0585 502.697 21.6062 500.144 21.6062 496.995C21.6062 493.846 19.0585 491.293 15.9157 491.293C12.7728 491.293 10.2251 493.846 10.2251 496.995C10.2251 500.144 12.7728 502.697 15.9157 502.697Z" fill="white"/>
<path d="M52.6672 502.697C55.81 502.697 58.3577 500.144 58.3577 496.995C58.3577 493.846 55.81 491.293 52.6672 491.293C49.5244 491.293 46.9766 493.846 46.9766 496.995C46.9766 500.144 49.5244 502.697 52.6672 502.697Z" fill="white"/>
<path d="M89.4186 502.697C92.5614 502.697 95.1092 500.144 95.1092 496.995C95.1092 493.846 92.5614 491.293 89.4186 491.293C86.2758 491.293 83.7281 493.846 83.7281 496.995C83.7281 500.144 86.2758 502.697 89.4186 502.697Z" fill="white"/>
<path d="M126.17 502.697C129.313 502.697 131.861 500.144 131.861 496.995C131.861 493.846 129.313 491.293 126.17 491.293C123.027 491.293 120.48 493.846 120.48 496.995C120.48 500.144 123.027 502.697 126.17 502.697Z" fill="white"/>
<path d="M162.922 502.697C166.064 502.697 168.612 500.144 168.612 496.995C168.612 493.846 166.064 491.293 162.922 491.293C159.779 491.293 157.231 493.846 157.231 496.995C157.231 500.144 159.779 502.697 162.922 502.697Z" fill="white"/>
<path d="M199.673 502.697C202.816 502.697 205.364 500.144 205.364 496.995C205.364 493.846 202.816 491.293 199.673 491.293C196.53 491.293 193.983 493.846 193.983 496.995C193.983 500.144 196.53 502.697 199.673 502.697Z" fill="white"/>
<path d="M15.9157 468.009C19.0585 468.009 21.6062 465.456 21.6062 462.307C21.6062 459.157 19.0585 456.604 15.9157 456.604C12.7728 456.604 10.2251 459.157 10.2251 462.307C10.2251 465.456 12.7728 468.009 15.9157 468.009Z" fill="white"/>
<path d="M52.6672 468.009C55.81 468.009 58.3577 465.456 58.3577 462.307C58.3577 459.157 55.81 456.604 52.6672 456.604C49.5244 456.604 46.9766 459.157 46.9766 462.307C46.9766 465.456 49.5244 468.009 52.6672 468.009Z" fill="white"/>
<path d="M89.4186 468.009C92.5614 468.009 95.1092 465.456 95.1092 462.307C95.1092 459.157 92.5614 456.604 89.4186 456.604C86.2758 456.604 83.7281 459.157 83.7281 462.307C83.7281 465.456 86.2758 468.009 89.4186 468.009Z" fill="white"/>
<path d="M126.17 468.009C129.313 468.009 131.861 465.456 131.861 462.307C131.861 459.157 129.313 456.604 126.17 456.604C123.027 456.604 120.48 459.157 120.48 462.307C120.48 465.456 123.027 468.009 126.17 468.009Z" fill="white"/>
<path d="M162.922 468.009C166.064 468.009 168.612 465.456 168.612 462.307C168.612 459.157 166.064 456.604 162.922 456.604C159.779 456.604 157.231 459.157 157.231 462.307C157.231 465.456 159.779 468.009 162.922 468.009Z" fill="white"/>
<path d="M199.673 468.009C202.816 468.009 205.364 465.456 205.364 462.307C205.364 459.157 202.816 456.604 199.673 456.604C196.53 456.604 193.983 459.157 193.983 462.307C193.983 465.456 196.53 468.009 199.673 468.009Z" fill="white"/>
<path d="M52.6672 433.32C55.81 433.32 58.3577 430.767 58.3577 427.618C58.3577 424.469 55.81 421.916 52.6672 421.916C49.5244 421.916 46.9766 424.469 46.9766 427.618C46.9766 430.767 49.5244 433.32 52.6672 433.32Z" fill="white"/>
<path d="M89.4187 433.32C92.5615 433.32 95.1092 430.767 95.1092 427.618C95.1092 424.469 92.5615 421.916 89.4187 421.916C86.2759 421.916 83.7281 424.469 83.7281 427.618C83.7281 430.767 86.2759 433.32 89.4187 433.32Z" fill="white"/>
<path d="M126.17 433.32C129.313 433.32 131.861 430.767 131.861 427.618C131.861 424.469 129.313 421.916 126.17 421.916C123.027 421.916 120.48 424.469 120.48 427.618C120.48 430.767 123.027 433.32 126.17 433.32Z" fill="white"/>
<path d="M162.922 433.32C166.064 433.32 168.612 430.767 168.612 427.618C168.612 424.469 166.064 421.916 162.922 421.916C159.779 421.916 157.231 424.469 157.231 427.618C157.231 430.767 159.779 433.32 162.922 433.32Z" fill="white"/>
<path d="M199.673 433.32C202.816 433.32 205.364 430.767 205.364 427.618C205.364 424.469 202.816 421.916 199.673 421.916C196.53 421.916 193.983 424.469 193.983 427.618C193.983 430.767 196.53 433.32 199.673 433.32Z" fill="white"/>
<path d="M52.6672 398.394C55.81 398.394 58.3577 395.842 58.3577 392.692C58.3577 389.543 55.81 386.99 52.6672 386.99C49.5244 386.99 46.9766 389.543 46.9766 392.692C46.9766 395.842 49.5244 398.394 52.6672 398.394Z" fill="white"/>
<path d="M89.4187 398.394C92.5615 398.394 95.1092 395.842 95.1092 392.692C95.1092 389.543 92.5615 386.99 89.4187 386.99C86.2759 386.99 83.7281 389.543 83.7281 392.692C83.7281 395.842 86.2759 398.394 89.4187 398.394Z" fill="white"/>
<path d="M126.17 398.394C129.313 398.394 131.861 395.842 131.861 392.692C131.861 389.543 129.313 386.99 126.17 386.99C123.027 386.99 120.48 389.543 120.48 392.692C120.48 395.842 123.027 398.394 126.17 398.394Z" fill="white"/>
<path d="M162.922 398.394C166.064 398.394 168.612 395.842 168.612 392.692C168.612 389.543 166.064 386.99 162.922 386.99C159.779 386.99 157.231 389.543 157.231 392.692C157.231 395.842 159.779 398.394 162.922 398.394Z" fill="white"/>
<path d="M199.673 398.394C202.816 398.394 205.364 395.842 205.364 392.692C205.364 389.543 202.816 386.99 199.673 386.99C196.53 386.99 193.983 389.543 193.983 392.692C193.983 395.842 196.53 398.394 199.673 398.394Z" fill="white"/>
<path d="M89.4186 363.706C92.5614 363.706 95.1092 361.153 95.1092 358.004C95.1092 354.855 92.5614 352.302 89.4186 352.302C86.2758 352.302 83.7281 354.855 83.7281 358.004C83.7281 361.153 86.2758 363.706 89.4186 363.706Z" fill="white"/>
<path d="M126.17 363.706C129.313 363.706 131.861 361.153 131.861 358.004C131.861 354.855 129.313 352.302 126.17 352.302C123.027 352.302 120.48 354.855 120.48 358.004C120.48 361.153 123.027 363.706 126.17 363.706Z" fill="white"/>
<path d="M162.922 363.706C166.064 363.706 168.612 361.153 168.612 358.004C168.612 354.855 166.064 352.302 162.922 352.302C159.779 352.302 157.231 354.855 157.231 358.004C157.231 361.153 159.779 363.706 162.922 363.706Z" fill="white"/>
<path d="M199.673 363.706C202.816 363.706 205.364 361.153 205.364 358.004C205.364 354.855 202.816 352.302 199.673 352.302C196.53 352.302 193.983 354.855 193.983 358.004C193.983 361.153 196.53 363.706 199.673 363.706Z" fill="white"/>
</g>
<circle cx="162.963" cy="334.931" r="51.4161" fill="#DFA911"/>
<g clip-path="url(#clip1)">
<path d="M27.1268 111.135C27.5468 113.077 29.4614 114.31 31.4031 113.89C33.3448 113.47 34.5784 111.555 34.1583 109.614C33.7382 107.672 31.8236 106.438 29.8819 106.858C27.9402 107.279 26.7067 109.193 27.1268 111.135Z" fill="white"/>
<path d="M31.9946 133.636C32.4147 135.577 34.3293 136.811 36.271 136.391C38.2127 135.971 39.4462 134.056 39.0262 132.114C38.6061 130.173 36.6915 128.939 34.7498 129.359C32.8081 129.779 31.5746 131.694 31.9946 133.636Z" fill="white"/>
<path d="M36.9005 156.312C37.3206 158.254 39.2352 159.488 41.1769 159.067C43.1186 158.647 44.3521 156.733 43.932 154.791C43.512 152.849 41.5974 151.616 39.6557 152.036C37.714 152.456 36.4804 154.371 36.9005 156.312Z" fill="white"/>
<path d="M41.7684 178.813C42.1885 180.755 44.1031 181.988 46.0448 181.568C47.9865 181.148 49.22 179.234 48.7999 177.292C48.3798 175.35 46.4652 174.117 44.5235 174.537C42.5818 174.957 41.3483 176.871 41.7684 178.813Z" fill="white"/>
<path d="M46.6743 201.49C47.0943 203.432 49.0089 204.665 50.9506 204.245C52.8923 203.825 54.1259 201.91 53.7058 199.969C53.2857 198.027 51.3711 196.793 49.4294 197.213C47.4877 197.634 46.2542 199.548 46.6743 201.49Z" fill="white"/>
<path d="M51.5421 223.991C51.9622 225.932 53.8768 227.166 55.8185 226.746C57.7602 226.326 58.9937 224.411 58.5737 222.469C58.1536 220.528 56.239 219.294 54.2973 219.714C52.3556 220.134 51.122 222.049 51.5421 223.991Z" fill="white"/>
<path d="M56.448 246.667C56.8681 248.609 58.7827 249.843 60.7244 249.423C62.6661 249.002 63.8996 247.088 63.4795 245.146C63.0595 243.204 61.1449 241.971 59.2032 242.391C57.2615 242.811 56.0279 244.726 56.448 246.667Z" fill="white"/>
<path d="M61.3158 269.168C61.7359 271.11 63.6505 272.343 65.5922 271.923C67.5339 271.503 68.7674 269.589 68.3473 267.647C67.9273 265.705 66.0127 264.472 64.071 264.892C62.1293 265.312 60.8957 267.227 61.3158 269.168Z" fill="white"/>
<path d="M48.3971 106.533C48.8172 108.475 50.7318 109.708 52.6735 109.288C54.6152 108.868 55.8487 106.954 55.4286 105.012C55.0086 103.07 53.094 101.837 51.1523 102.257C49.2106 102.677 47.977 104.591 48.3971 106.533Z" fill="white"/>
<path d="M53.265 129.034C53.685 130.976 55.5996 132.209 57.5413 131.789C59.483 131.369 60.7166 129.455 60.2965 127.513C59.8764 125.571 57.9618 124.338 56.0201 124.758C54.0784 125.178 52.8449 127.092 53.265 129.034Z" fill="white"/>
<path d="M58.1709 151.711C58.5909 153.652 60.5055 154.886 62.4472 154.466C64.3889 154.046 65.6224 152.131 65.2024 150.189C64.7823 148.248 62.8677 147.014 60.926 147.434C58.9843 147.854 57.7508 149.769 58.1709 151.711Z" fill="white"/>
<path d="M63.0387 174.212C63.4588 176.153 65.3734 177.387 67.3151 176.967C69.2568 176.547 70.4903 174.632 70.0702 172.69C69.6502 170.749 67.7356 169.515 65.7939 169.935C63.8522 170.355 62.6186 172.27 63.0387 174.212Z" fill="white"/>
<path d="M67.9446 196.888C68.3647 198.83 70.2793 200.063 72.221 199.643C74.1627 199.223 75.3962 197.309 74.9761 195.367C74.556 193.425 72.6415 192.192 70.6998 192.612C68.7581 193.032 67.5245 194.947 67.9446 196.888Z" fill="white"/>
<path d="M72.8124 219.389C73.2325 221.331 75.1471 222.564 77.0888 222.144C79.0305 221.724 80.264 219.81 79.8439 217.868C79.4238 215.926 77.5093 214.693 75.5676 215.113C73.6259 215.533 72.3923 217.447 72.8124 219.389Z" fill="white"/>
<path d="M77.7183 242.066C78.1384 244.007 80.053 245.241 81.9947 244.821C83.9364 244.401 85.1699 242.486 84.7499 240.545C84.3298 238.603 82.4152 237.369 80.4735 237.789C78.5318 238.209 77.2983 240.124 77.7183 242.066Z" fill="white"/>
<path d="M82.5861 264.567C83.0062 266.508 84.9208 267.742 86.8625 267.322C88.8042 266.902 90.0377 264.987 89.6177 263.045C89.1976 261.104 87.283 259.87 85.3413 260.29C83.3996 260.71 82.1661 262.625 82.5861 264.567Z" fill="white"/>
<path d="M69.8433 101.893C70.2634 103.835 72.1779 105.069 74.1196 104.649C76.0613 104.229 77.2949 102.314 76.8748 100.372C76.4547 98.4306 74.5401 97.1971 72.5984 97.6171C70.6567 98.0372 69.4232 99.9518 69.8433 101.893Z" fill="white"/>
<path d="M74.7111 124.394C75.1312 126.336 77.0458 127.57 78.9875 127.15C80.9292 126.729 82.1627 124.815 81.7427 122.873C81.3226 120.931 79.408 119.698 77.4663 120.118C75.5246 120.538 74.2911 122.453 74.7111 124.394Z" fill="white"/>
<path d="M79.617 147.071C80.0371 149.013 81.9517 150.246 83.8934 149.826C85.8351 149.406 87.0686 147.491 86.6485 145.55C86.2285 143.608 84.3139 142.375 82.3722 142.795C80.4305 143.215 79.197 145.129 79.617 147.071Z" fill="white"/>
<path d="M84.4849 169.572C84.905 171.514 86.8195 172.747 88.7612 172.327C90.7029 171.907 91.9365 169.992 91.5164 168.051C91.0963 166.109 89.1817 164.875 87.24 165.295C85.2983 165.716 84.0648 167.63 84.4849 169.572Z" fill="white"/>
<path d="M89.3907 192.249C89.8108 194.19 91.7254 195.424 93.6671 195.004C95.6088 194.584 96.8423 192.669 96.4222 190.727C96.0022 188.786 94.0876 187.552 92.1459 187.972C90.2042 188.392 88.9707 190.307 89.3907 192.249Z" fill="white"/>
<path d="M94.2586 214.749C94.6786 216.691 96.5932 217.925 98.5349 217.505C100.477 217.084 101.71 215.17 101.29 213.228C100.87 211.286 98.9554 210.053 97.0137 210.473C95.072 210.893 93.8385 212.808 94.2586 214.749Z" fill="white"/>
<path d="M99.1645 237.426C99.5846 239.368 101.499 240.601 103.441 240.181C105.383 239.761 106.616 237.847 106.196 235.905C105.776 233.963 103.861 232.73 101.92 233.15C99.978 233.57 98.7444 235.484 99.1645 237.426Z" fill="white"/>
<path d="M104.032 259.927C104.452 261.869 106.367 263.102 108.309 262.682C110.25 262.262 111.484 260.347 111.064 258.406C110.644 256.464 108.729 255.23 106.787 255.651C104.846 256.071 103.612 257.985 104.032 259.927Z" fill="white"/>
<path d="M91.1136 97.2919C91.5337 99.2336 93.4483 100.467 95.39 100.047C97.3317 99.627 98.5652 97.7124 98.1451 95.7707C97.7251 93.829 95.8105 92.5954 93.8688 93.0155C91.9271 93.4356 90.6935 95.3502 91.1136 97.2919Z" fill="white"/>
<path d="M95.9815 119.793C96.4015 121.734 98.3161 122.968 100.258 122.548C102.2 122.128 103.433 120.213 103.013 118.272C102.593 116.33 100.678 115.096 98.7366 115.516C96.7949 115.936 95.5614 117.851 95.9815 119.793Z" fill="white"/>
<path d="M100.887 142.469C101.307 144.411 103.222 145.645 105.164 145.225C107.105 144.804 108.339 142.89 107.919 140.948C107.499 139.006 105.584 137.773 103.642 138.193C101.701 138.613 100.467 140.528 100.887 142.469Z" fill="white"/>
<path d="M105.755 164.97C106.175 166.912 108.09 168.145 110.032 167.725C111.973 167.305 113.207 165.391 112.787 163.449C112.367 161.507 110.452 160.274 108.51 160.694C106.569 161.114 105.335 163.029 105.755 164.97Z" fill="white"/>
<path d="M110.661 187.647C111.081 189.589 112.996 190.822 114.937 190.402C116.879 189.982 118.113 188.067 117.693 186.126C117.273 184.184 115.358 182.95 113.416 183.371C111.475 183.791 110.241 185.705 110.661 187.647Z" fill="white"/>
<path d="M115.529 210.148C115.949 212.089 117.864 213.323 119.805 212.903C121.747 212.483 122.981 210.568 122.56 208.627C122.14 206.685 120.226 205.451 118.284 205.871C116.342 206.291 115.109 208.206 115.529 210.148Z" fill="white"/>
<path d="M120.435 232.824C120.855 234.766 122.769 236 124.711 235.58C126.653 235.16 127.886 233.245 127.466 231.303C127.046 229.362 125.132 228.128 123.19 228.548C121.248 228.968 120.015 230.883 120.435 232.824Z" fill="white"/>
<path d="M125.303 255.325C125.723 257.267 127.637 258.501 129.579 258.08C131.521 257.66 132.754 255.746 132.334 253.804C131.914 251.862 130 250.629 128.058 251.049C126.116 251.469 124.883 253.384 125.303 255.325Z" fill="white"/>
<path d="M112.384 92.6902C112.804 94.6319 114.719 95.8654 116.66 95.4454C118.602 95.0253 119.836 93.1107 119.416 91.169C118.995 89.2273 117.081 87.9938 115.139 88.4139C113.197 88.8339 111.964 90.7485 112.384 92.6902Z" fill="white"/>
<path d="M117.252 115.191C117.672 117.133 119.587 118.366 121.528 117.946C123.47 117.526 124.703 115.612 124.283 113.67C123.863 111.728 121.949 110.495 120.007 110.915C118.065 111.335 116.832 113.249 117.252 115.191Z" fill="white"/>
<path d="M122.158 137.868C122.578 139.809 124.492 141.043 126.434 140.623C128.376 140.203 129.609 138.288 129.189 136.347C128.769 134.405 126.855 133.171 124.913 133.591C122.971 134.011 121.738 135.926 122.158 137.868Z" fill="white"/>
<path d="M127.026 160.369C127.446 162.31 129.36 163.544 131.302 163.124C133.244 162.704 134.477 160.789 134.057 158.847C133.637 156.906 131.722 155.672 129.781 156.092C127.839 156.512 126.606 158.427 127.026 160.369Z" fill="white"/>
<path d="M131.931 183.045C132.352 184.987 134.266 186.22 136.208 185.8C138.15 185.38 139.383 183.466 138.963 181.524C138.543 179.582 136.628 178.349 134.687 178.769C132.745 179.189 131.511 181.104 131.931 183.045Z" fill="white"/>
<path d="M136.799 205.546C137.219 207.488 139.134 208.721 141.076 208.301C143.017 207.881 144.251 205.967 143.831 204.025C143.411 202.083 141.496 200.85 139.554 201.27C137.613 201.69 136.379 203.604 136.799 205.546Z" fill="white"/>
<path d="M141.705 228.223C142.125 230.164 144.04 231.398 145.982 230.978C147.923 230.558 149.157 228.643 148.737 226.702C148.317 224.76 146.402 223.526 144.46 223.946C142.519 224.367 141.285 226.281 141.705 228.223Z" fill="white"/>
<path d="M146.573 250.724C146.993 252.665 148.908 253.899 150.849 253.479C152.791 253.059 154.025 251.144 153.605 249.202C153.184 247.261 151.27 246.027 149.328 246.447C147.386 246.867 146.153 248.782 146.573 250.724Z" fill="white"/>
<path d="M133.654 88.0886C134.074 90.0303 135.989 91.2638 137.931 90.8437C139.872 90.4237 141.106 88.5091 140.686 86.5674C140.266 84.6257 138.351 83.3921 136.409 83.8122C134.468 84.2323 133.234 86.1469 133.654 88.0886Z" fill="white"/>
<path d="M138.522 110.589C138.942 112.531 140.857 113.765 142.799 113.345C144.74 112.925 145.974 111.01 145.554 109.068C145.134 107.127 143.219 105.893 141.277 106.313C139.336 106.733 138.102 108.648 138.522 110.589Z" fill="white"/>
<path d="M143.428 133.266C143.848 135.208 145.763 136.441 147.704 136.021C149.646 135.601 150.88 133.687 150.46 131.745C150.04 129.803 148.125 128.57 146.183 128.99C144.242 129.41 143.008 131.324 143.428 133.266Z" fill="white"/>
<path d="M148.296 155.767C148.716 157.709 150.631 158.942 152.572 158.522C154.514 158.102 155.748 156.187 155.327 154.246C154.907 152.304 152.993 151.07 151.051 151.491C149.109 151.911 147.876 153.825 148.296 155.767Z" fill="white"/>
<path d="M153.202 178.444C153.622 180.385 155.536 181.619 157.478 181.199C159.42 180.779 160.653 178.864 160.233 176.922C159.813 174.981 157.899 173.747 155.957 174.167C154.015 174.587 152.782 176.502 153.202 178.444Z" fill="white"/>
<path d="M158.07 200.944C158.49 202.886 160.404 204.12 162.346 203.7C164.288 203.28 165.521 201.365 165.101 199.423C164.681 197.482 162.767 196.248 160.825 196.668C158.883 197.088 157.65 199.003 158.07 200.944Z" fill="white"/>
<path d="M162.976 223.621C163.396 225.563 165.31 226.796 167.252 226.376C169.194 225.956 170.427 224.042 170.007 222.1C169.587 220.158 167.672 218.925 165.731 219.345C163.789 219.765 162.555 221.679 162.976 223.621Z" fill="white"/>
<path d="M167.843 246.122C168.263 248.064 170.178 249.297 172.12 248.877C174.061 248.457 175.295 246.542 174.875 244.601C174.455 242.659 172.54 241.426 170.599 241.846C168.657 242.266 167.423 244.18 167.843 246.122Z" fill="white"/>
<path d="M155.1 83.4489C155.521 85.3906 157.435 86.6241 159.377 86.204C161.319 85.784 162.552 83.8694 162.132 81.9277C161.712 79.986 159.797 78.7525 157.856 79.1725C155.914 79.5926 154.68 81.5072 155.1 83.4489Z" fill="white"/>
<path d="M159.968 105.95C160.388 107.891 162.303 109.125 164.245 108.705C166.186 108.285 167.42 106.37 167 104.429C166.58 102.487 164.665 101.253 162.723 101.673C160.782 102.093 159.548 104.008 159.968 105.95Z" fill="white"/>
<path d="M164.874 128.626C165.294 130.568 167.209 131.802 169.151 131.382C171.092 130.961 172.326 129.047 171.906 127.105C171.486 125.163 169.571 123.93 167.629 124.35C165.688 124.77 164.454 126.685 164.874 128.626Z" fill="white"/>
<path d="M169.742 151.127C170.162 153.069 172.077 154.302 174.018 153.882C175.96 153.462 177.194 151.548 176.774 149.606C176.354 147.664 174.439 146.431 172.497 146.851C170.556 147.271 169.322 149.186 169.742 151.127Z" fill="white"/>
<path d="M174.648 173.804C175.068 175.746 176.983 176.979 178.924 176.559C180.866 176.139 182.1 174.224 181.679 172.283C181.259 170.341 179.345 169.108 177.403 169.528C175.461 169.948 174.228 171.862 174.648 173.804Z" fill="white"/>
<path d="M179.516 196.305C179.936 198.246 181.85 199.48 183.792 199.06C185.734 198.64 186.967 196.725 186.547 194.784C186.127 192.842 184.213 191.608 182.271 192.028C180.329 192.448 179.096 194.363 179.516 196.305Z" fill="white"/>
<path d="M184.422 218.981C184.842 220.923 186.756 222.157 188.698 221.737C190.64 221.317 191.873 219.402 191.453 217.46C191.033 215.519 189.119 214.285 187.177 214.705C185.235 215.125 184.002 217.04 184.422 218.981Z" fill="white"/>
<path d="M189.29 241.482C189.71 243.424 191.624 244.658 193.566 244.237C195.508 243.817 196.741 241.903 196.321 239.961C195.901 238.019 193.986 236.786 192.045 237.206C190.103 237.626 188.869 239.541 189.29 241.482Z" fill="white"/>
<path d="M176.371 78.8473C176.791 80.789 178.705 82.0225 180.647 81.6024C182.589 81.1824 183.822 79.2678 183.402 77.3261C182.982 75.3844 181.068 74.1508 179.126 74.5709C177.184 74.991 175.951 76.9056 176.371 78.8473Z" fill="white"/>
<path d="M181.239 101.348C181.659 103.29 183.573 104.523 185.515 104.103C187.457 103.683 188.69 101.769 188.27 99.8269C187.85 97.8852 185.936 96.6517 183.994 97.0718C182.052 97.4919 180.819 99.4065 181.239 101.348Z" fill="white"/>
<path d="M186.145 124.025C186.565 125.966 188.479 127.2 190.421 126.78C192.363 126.36 193.596 124.445 193.176 122.504C192.756 120.562 190.841 119.328 188.9 119.748C186.958 120.168 185.724 122.083 186.145 124.025Z" fill="white"/>
<path d="M191.012 146.526C191.432 148.467 193.347 149.701 195.289 149.281C197.23 148.861 198.464 146.946 198.044 145.004C197.624 143.063 195.709 141.829 193.768 142.249C191.826 142.669 190.592 144.584 191.012 146.526Z" fill="white"/>
<path d="M195.918 169.202C196.338 171.144 198.253 172.378 200.195 171.957C202.136 171.537 203.37 169.623 202.95 167.681C202.53 165.739 200.615 164.506 198.673 164.926C196.732 165.346 195.498 167.261 195.918 169.202Z" fill="white"/>
<path d="M200.786 191.703C201.206 193.645 203.121 194.878 205.063 194.458C207.004 194.038 208.238 192.124 207.818 190.182C207.398 188.24 205.483 187.007 203.541 187.427C201.6 187.847 200.366 189.761 200.786 191.703Z" fill="white"/>
<path d="M205.692 214.38C206.112 216.322 208.027 217.555 209.968 217.135C211.91 216.715 213.144 214.8 212.724 212.859C212.303 210.917 210.389 209.683 208.447 210.103C206.505 210.524 205.272 212.438 205.692 214.38Z" fill="white"/>
<path d="M210.56 236.881C210.98 238.822 212.894 240.056 214.836 239.636C216.778 239.216 218.011 237.301 217.591 235.359C217.171 233.418 215.257 232.184 213.315 232.604C211.373 233.024 210.14 234.939 210.56 236.881Z" fill="white"/>
<path d="M248.884 210.74L210.74 34.4247L34.4247 72.5689L72.5689 248.884L248.884 210.74Z" fill="#DFA911"/>
<path d="M26.6203 166.633C40.3566 230.127 102.964 270.463 166.457 256.727C229.951 242.99 270.287 180.383 256.551 116.89C242.815 53.3961 180.208 13.0598 116.714 26.796C53.2204 40.5323 12.8841 103.139 26.6203 166.633Z" stroke="white" stroke-width="1.655" stroke-miterlimit="10"/>
<path d="M50.0001 161.575C60.9429 212.156 110.818 244.29 161.399 233.347C211.981 222.404 244.114 172.529 233.171 121.948C222.228 71.3664 172.353 39.233 121.772 50.1758C71.1907 61.1186 39.0573 110.994 50.0001 161.575Z" stroke="white" stroke-width="1.655" stroke-miterlimit="10"/>
<path d="M73.3799 156.517C81.5292 194.186 118.672 218.116 156.341 209.967C194.01 201.818 217.941 164.675 209.791 127.006C201.642 89.3367 164.499 65.4063 126.83 73.5556C89.161 81.705 65.2306 118.848 73.3799 156.517Z" stroke="white" stroke-width="1.655" stroke-miterlimit="10"/>
<path d="M96.7597 151.459C102.116 176.216 126.527 191.943 151.283 186.587C176.04 181.231 191.767 156.82 186.412 132.064C181.056 107.307 156.645 91.5796 131.888 96.9354C107.131 102.291 91.4038 126.702 96.7597 151.459Z" stroke="white" stroke-width="1.655" stroke-miterlimit="10"/>
<path d="M120.139 146.401C122.702 158.245 134.381 165.77 146.225 163.207C158.07 160.645 165.594 148.966 163.032 137.122C160.469 125.277 148.79 117.753 136.946 120.315C125.102 122.878 117.577 134.557 120.139 146.401Z" stroke="white" stroke-width="1.655" stroke-miterlimit="10"/>
</g>
<defs>
<clipPath id="clip0">
<rect width="268.642" height="254.698" fill="white" transform="translate(10.2251 352.302)"/>
</clipPath>
<clipPath id="clip1">
<rect width="238.307" height="238.307" fill="white" transform="translate(232.919) rotate(77.7927)"/>
</clipPath>
</defs>
</svg>
