<svg width="24" height="25" viewBox="0 0 24 25" fill="none" xmlns="http://www.w3.org/2000/svg">
<g clip-path="url(#clip0)">
<path d="M23.994 24.4239V24.4229H24V15.7166C24 11.4574 23.073 8.17645 18.039 8.17645C15.619 8.17645 13.995 9.49002 13.332 10.7353H13.262V8.57408H8.48901V24.4229H13.459V16.5752C13.459 14.5089 13.855 12.5108 16.442 12.5108C18.991 12.5108 19.029 14.8689 19.029 16.7077V24.4239H23.994Z" fill="#BFBFBF"/>
<path d="M0.396027 8.57507H5.37203V24.4239H0.396027V8.57507Z" fill="#BFBFBF"/>
<path d="M2.882 0.684784C1.291 0.684784 0 1.96175 0 3.53546C0 5.10916 1.291 6.41284 2.882 6.41284C4.473 6.41284 5.764 5.10916 5.764 3.53546C5.763 1.96175 4.472 0.684784 2.882 0.684784V0.684784Z" fill="#BFBFBF"/>
</g>
<defs>
<clipPath id="clip0">
<rect width="24" height="23.7391" fill="white" transform="translate(0 0.684784)"/>
</clipPath>
</defs>
</svg>
